<?xml version="1.0" encoding="UTF-8" standalone="no"?>
<svg xmlns:rdf="http://www.w3.org/1999/02/22-rdf-syntax-ns#" xmlns="http://www.w3.org/2000/svg" xml:space="preserve" overflow="visible" height="166" viewBox="0 0 524.23513 166" width="524.24" version="1.0" xmlns:cc="http://creativecommons.org/ns#" enable-background="new 0 0 373.166 118.164" xmlns:dc="http://purl.org/dc/elements/1.1/">
 <g transform="matrix(1.4048 0 0 1.4048 0 -.0000030903)">
   <linearGradient id="XMLID_8_" y2="121.18" gradientUnits="userSpaceOnUse" x2="186.58" y1="-3.1577" x1="186.58">
    <stop stop-color="#4D4D4D" offset="0"/>
    <stop stop-color="#474747" offset=".2047"/>
    <stop stop-color="#383838" offset=".4568"/>
    <stop stop-color="#1F1F1F" offset=".7324"/>
    <stop offset="1"/>
   </linearGradient>
   <path opacity=".25" d="m360.92 91.295c0 8.064-6.529 14.625-14.557 14.625h-319.56c-8.027 0-14.559-6.561-14.559-14.625v-64.424c0-8.065 6.531-14.627 14.559-14.627h319.56c8.027 0 14.557 6.562 14.557 14.627v64.424zm-14.56-91.295h-319.56c-14.78 0-26.803 12.054-26.803 26.871v64.424c0 14.815 12.023 26.869 26.803 26.869h319.56c14.779 0 26.803-12.054 26.803-26.869v-64.42c0.01-14.817-12.02-26.871-26.8-26.871z" fill="url(#XMLID_8_)"/>
   <linearGradient id="XMLID_9_" y2="119.69" gradientUnits="userSpaceOnUse" x2="186.58" y1="-1.665" x1="186.58">
    <stop stop-color="#4D4D4D" offset="0"/>
    <stop stop-color="#474747" offset=".2047"/>
    <stop stop-color="#383838" offset=".4568"/>
    <stop stop-color="#1F1F1F" offset=".7324"/>
    <stop offset="1"/>
   </linearGradient>
   <path opacity=".625" d="m360.92 91.295c0 8.064-6.53 14.625-14.557 14.625h-319.56c-8.027 0-14.559-6.561-14.559-14.625v-64.424c0-8.065 6.531-14.627 14.559-14.627h319.56c8.026 0 14.557 6.562 14.557 14.627v64.424zm-14.56-89.878h-319.56c-13.998 0-25.386 11.418-25.386 25.454v64.424c0 14.034 11.388 25.452 25.386 25.452h319.56c13.996 0 25.385-11.418 25.385-25.452v-64.427c0-14.036-11.389-25.454-25.385-25.454z" fill="url(#XMLID_9_)"/>
   <linearGradient id="XMLID_10_" y2="118.2" gradientUnits="userSpaceOnUse" x2="186.58" y1="-.1719" x1="186.58">
    <stop stop-color="#4D4D4D" offset="0"/>
    <stop stop-color="#474747" offset=".2047"/>
    <stop stop-color="#383838" offset=".4568"/>
    <stop stop-color="#1F1F1F" offset=".7324"/>
    <stop offset="1"/>
   </linearGradient>
   <path d="m360.92 91.295c0 8.064-6.53 14.625-14.557 14.625h-319.56c-8.027 0-14.559-6.561-14.559-14.625v-64.424c0-8.065 6.531-14.627 14.559-14.627h319.56c8.026 0 14.557 6.562 14.557 14.627v64.424zm-14.56-88.461h-319.56c-13.216 0-23.969 10.783-23.969 24.037v64.424c0 13.253 10.753 24.035 23.969 24.035h319.56c13.215 0 23.967-10.782 23.967-24.035v-64.424c0-13.254-10.75-24.037-23.97-24.037z" fill="url(#XMLID_10_)"/>
  <linearGradient id="XMLID_11_" y2="119.19" gradientUnits="userSpaceOnUse" x2="186.58" y1=".0737" x1="186.58">
   <stop stop-color="#696969" offset="0"/>
   <stop stop-color="#6E6E6E" offset=".1198"/>
   <stop stop-color="#7A7A7A" offset=".2472"/>
   <stop stop-color="#FFF" offset=".4775"/>
   <stop stop-color="#EDEDED" offset=".573"/>
   <stop stop-color="#383838" offset=".6067"/>
   <stop stop-color="#141414" offset=".6461"/>
   <stop stop-color="#828282" offset=".7303"/>
   <stop offset=".8933"/>
  </linearGradient>
  <path d="m346.36 3.699h-319.56c-12.74 0-23.104 10.395-23.104 23.172v64.424c0 12.776 10.364 23.17 23.104 23.17h319.56c12.738 0 23.102-10.394 23.102-23.17v-64.419c0.01-12.777-10.36-23.172-23.1-23.172zm14.557 87.596c0 8.064-6.53 14.625-14.557 14.625h-319.56c-8.027 0-14.559-6.561-14.559-14.625v-64.424c0-8.065 6.531-14.627 14.559-14.627h319.56c8.026 0 14.557 6.562 14.557 14.627v64.424z" fill="url(#XMLID_11_)"/>
  <path d="m346.36 12.244h-319.56c-8.027 0-14.559 6.562-14.559 14.627v64.424c0 8.064 6.531 14.625 14.559 14.625h319.56c8.026 0 14.557-6.561 14.557-14.625v-64.424c-0.001-8.065-6.531-14.627-14.558-14.627zm13.691 79.051c0 7.587-6.142 13.76-13.69 13.76h-319.56c-7.55 0-13.692-6.173-13.692-13.76v-64.429c0-7.588 6.143-13.761 13.692-13.761h319.56c7.549 0 13.69 6.173 13.69 13.761v64.424z" fill="#FFF"/>
  <linearGradient id="XMLID_12_" y2="137.44" gradientUnits="userSpaceOnUse" x2="169.02" y1="-27.379" x1="205.96">
   <stop stop-color="#666" offset=".0056"/>
   <stop stop-color="#D1D1D1" offset=".1854"/>
   <stop stop-color="#E3E3E3" offset=".2416"/>
   <stop stop-color="#FFF" offset=".4326"/>
   <stop stop-color="#1A1A1A" offset=".8034"/>
  </linearGradient>
  <path d="m346.36 13.11h-319.56c-7.55 0-13.692 6.173-13.692 13.761v64.424c0 7.587 6.143 13.76 13.692 13.76h319.56c7.549 0 13.69-6.173 13.69-13.76v-64.429c0-7.588-6.142-13.761-13.691-13.761zm10.553 78.185c0 5.856-4.733 10.621-10.553 10.621h-319.56c-5.82 0-10.555-4.765-10.555-10.621v-64.428c0-5.857 4.734-10.623 10.555-10.623h319.56c5.819 0 10.553 4.766 10.553 10.623v64.424z" fill="url(#XMLID_12_)"/>
  <linearGradient id="XMLID_13_" y2="108.38" gradientUnits="userSpaceOnUse" x2="186.58" y1="-12.451" x1="186.58">
   <stop stop-color="#666" offset=".0056"/>
   <stop stop-color="#D1D1D1" offset=".3034"/>
   <stop stop-color="#FFF" offset=".4663"/>
   <stop stop-color="#1A1A1A" offset=".8034"/>
  </linearGradient>
  <path d="m346.36 16.248h-319.56c-5.82 0-10.555 4.766-10.555 10.623v64.424c0 5.856 4.734 10.621 10.555 10.621h319.56c5.819 0 10.553-4.765 10.553-10.621v-64.428c-0.001-5.857-4.734-10.623-10.554-10.623zm10.239 75.047c0 5.693-4.584 10.307-10.238 10.307h-319.56c-5.656 0-10.24-4.613-10.24-10.307v-64.422c0-5.693 4.584-10.309 10.24-10.309h319.56c5.654 0 10.238 4.615 10.238 10.309v64.424z" fill="url(#XMLID_13_)"/>
  <linearGradient id="XMLID_14_" y2="5.0186" gradientUnits="userSpaceOnUse" x2="186.58" y1="61.996" x1="186.58">
   <stop stop-color="#525252" offset=".427"/>
   <stop stop-color="#0D0D0D" offset=".7753"/>
  </linearGradient>
  <path d="m14.675 45.108c0.63-1.384 1.574 1.063 1.574 1.063v-19.3c0-5.857 4.734-10.623 10.555-10.623h319.56c5.819 0 10.553 4.766 10.553 10.623v19.3s0.584-1.439 1.842-0.56c1.258 0.881 1.296 11.56 1.296 11.56v-30.3c0-7.588-6.142-13.761-13.69-13.761h-319.56c-7.55 0-13.692 6.173-13.692 13.761v30.3c-0.001 0 0.933-10.679 1.563-12.063z" fill="url(#XMLID_14_)"/>
 </g>
</svg>
