<?xml version="1.0" encoding="UTF-8" standalone="no"?>
<svg xmlns:rdf="http://www.w3.org/1999/02/22-rdf-syntax-ns#" xmlns="http://www.w3.org/2000/svg" contentScriptType="text/ecmascript" viewBox="0 0 119.16874 119.1807" height="119.18" width="119.17" contentStyleType="text/css" version="1.1" zoomAndPan="magnify" preserveAspectRatio="xMidYMid meet" xmlns:cc="http://creativecommons.org/ns#" xmlns:xlink="http://www.w3.org/1999/xlink" xmlns:dc="http://purl.org/dc/elements/1.1/">
 <defs>
  <linearGradient id="linearGradient21275" y2="225.62" gradientUnits="userSpaceOnUse" x2="427.48" gradientTransform="matrix(.28060 0 0 -.29566 308.73 174.93)" y1="37.869" x1="427.48">
   <stop offset="0"/>
   <stop stop-opacity="0" offset="1"/>
  </linearGradient>
  <linearGradient id="linearGradient5274" y2="25.807" xlink:href="#linearGradient21275" gradientUnits="userSpaceOnUse" x2="293.7" gradientTransform="matrix(1.4028 0 0 1.4015 -366.42 -8.4088)" y1="131.14" x1="323.81"/>
  <linearGradient id="linearGradient6136" y2="176.39" gradientUnits="userSpaceOnUse" x2="321.7" gradientTransform="matrix(1 0 0 .99997 -431.81 -126.33)" y1="138.16" x1="321.44">
   <stop stop-color="#FFF" offset="0"/>
   <stop stop-color="#FFF" stop-opacity="0" offset="1"/>
  </linearGradient>
  <linearGradient id="linearGradient6185" y2="72.949" xlink:href="#linearGradient21275" gradientUnits="userSpaceOnUse" x2="243.76" gradientTransform="matrix(1 0 0 .99997 -381.34 2.2144)" y1="125.5" x1="244.05"/>
  <linearGradient id="linearGradient6223" y2="99.694" gradientUnits="userSpaceOnUse" y1="3.6819" gradientTransform="matrix(1 0 0 .99997 -368.42 -8.4088)" x2="248.71" x1="248.71">
   <stop stop-color="#FFF" offset="0"/>
   <stop stop-opacity="0" stop-color="#FFF" offset="1"/>
  </linearGradient>
 </defs>
 <path id="bgColor00" fill="#003380" d="m59.649 0c-32.94 0-59.645 26.68-59.645 59.589s26.704 59.59 59.645 59.59h-0.13c32.94 0 59.647-26.68 59.647-59.59s-26.708-59.59-59.651-59.59h0.13z"/>
 <path opacity=".2" fill="#4d4d4d" d="m59.649 0c-32.94 0-59.645 26.68-59.645 59.589s26.705 59.59 59.645 59.59h-0.12584c32.94 0 59.646-26.68 59.646-59.59s-26.706-59.59-59.647-59.59h0.12584zm-22.124 111.91c-13.903-5.828-23.932-16.765-30.251-30.223-6.1184-14.398-5.4384-29.777 0-44.205 5.8378-13.899 16.788-23.914 30.251-30.223 7.0055-2.9599 14.449-4.4609 22.123-4.4609h-0.12584c7.6746 0 15.118 1.501 22.123 4.4609 13.902 5.8286 23.933 16.764 30.251 30.223 6.1195 14.399 5.4393 29.776 0 44.205-5.8387 13.898-16.789 23.914-30.251 30.223-7.0055 2.9599-14.45 4.4623-22.123 4.4623h0.12583c-7.6885 0.16032-15-1.7813-22.123-4.4623z"/>
 <path opacity=".77404" fill="url(#linearGradient6136)" d="m59.649 0c-32.94 0-59.645 26.68-59.645 59.589 0 8.6032 26.704-0.40767 59.645-0.40767h-0.13c32.94 0 59.647 14.925 59.647 0.40767 0-32.909-26.708-59.589-59.651-59.589h0.13z"/>
 <path opacity=".25" fill="url(#linearGradient6185)" d="m0.00359 67.931c4.0672 28.953 28.96 51.248 59.064 51.248h-0.13c30.101 0 54.965-22.295 59.032-51.248h-117.97 0.006z"/>
 <path opacity=".25" fill="url(#linearGradient5274)" d="m108.19 31.078c3.8282 7.5498 5.9997 16.079 5.9997 25.123 0 30.757-24.954 55.687-55.739 55.687h2.53c-30.782 0-55.739-24.931-55.739-55.687 0-9.0353 2.1673-17.559 5.9913-25.106l-1.9947-3.3355c-5.8381 9.2097-9.233 20.12-9.233 31.831 0 32.911 26.704 59.59 59.647 59.59h-0.13c32.941 0 59.647-26.68 59.647-59.59 0-11.42-3.2207-22.087-8.7969-31.152l-2.1827 2.6403 0.0003-0.0008z"/>
 <path opacity=".6" fill="url(#linearGradient6223)" d="m54.659 1.9582c-18.241 0-33.029 14.775-33.029 32.999s16.788 32.999 35.029 32.999h7.2901c18.241 0 35.03-14.775 35.03-32.999s-14.788-32.999-33.03-32.999h-11.29z"/>
 <path opacity=".9" fill="#fff" d="m59.538 1.9572h0.55001c-21.347 0-40.431 11.075-50.303 27.952 0.3535 0.35317 1.2863 1.3749 2.1771 0.68392 7.0546-9.3968 13.022-14.527 18.223-17.323 6.76-3.819 18.528-7.2456 29.901-7.2456h-0.55001c11.375 0 23.143 3.4266 29.901 7.2456 5.2 2.7973 11.17 7.9267 18.222 17.323 0.89357 0.69092 1.825-0.33075 2.1785-0.68392-9.87-16.877-28.948-27.952-50.299-27.952h-0.0006z"/>
</svg>
