<?xml version="1.0" encoding="UTF-8" standalone="no"?>
<svg xmlns:rdf="http://www.w3.org/1999/02/22-rdf-syntax-ns#" xmlns="http://www.w3.org/2000/svg" contentScriptType="text/ecmascript" viewBox="0 0 120.00828 120.002" height="120" width="120.01" contentStyleType="text/css" version="1.1" zoomAndPan="magnify" preserveAspectRatio="xMidYMid meet" xmlns:cc="http://creativecommons.org/ns#" xmlns:dc="http://purl.org/dc/elements/1.1/">
 <defs>
  <linearGradient id="linearGradient9632" x1="427.48" gradientUnits="userSpaceOnUse" y1="37.869" gradientTransform="matrix(.28060 0 0 .29566 -60.192 -27.973)" x2="427.48" y2="225.62">
   <stop stop-color="#FFF" offset="0"/>
   <stop stop-opacity="0" stop-color="#FFF" offset="1"/>
  </linearGradient>
  <linearGradient id="linearGradient9637" x1="427.48" gradientUnits="userSpaceOnUse" y1="37.869" gradientTransform="matrix(.28060 0 0 -.29566 -60.778 146.94)" x2="427.48" y2="225.62">
   <stop offset="0"/>
   <stop stop-opacity="0" offset="1"/>
  </linearGradient>
  <linearGradient id="linearGradient9640" x1="19.225" gradientUnits="userSpaceOnUse" y1="45.328" gradientTransform="matrix(-1.4111 0 0 1.4111 147.13 .0025)" x2="26.282" y2="45.328">
   <stop stop-color="#58585A" offset="0"/>
   <stop stop-color="#E3E4E4" offset="1"/>
  </linearGradient>
  <linearGradient id="linearGradient9643" x1="-7.564" gradientUnits="userSpaceOnUse" y1="24.546" gradientTransform="matrix(1.4111 0 0 1.4111 .0003 .0025)" x2="10.251" y2="59.491">
   <stop stop-color="#E3E4E4" offset="0"/>
   <stop stop-color="#5A5A5A" offset="1"/>
  </linearGradient>
 </defs>
 <path id="bgColor00" fill="#003380" d="m105.56 0.002h-91.103c-7.9812 0-14.451 6.5137-14.451 14.547v90.911c0 8.0321 6.4686 14.542 14.45 14.542h91.103c7.977 0 14.446-6.5081 14.446-14.542v-90.913c-0.01-8.033-6.48-14.547-14.45-14.547z"/>
 <path opacity=".2" fill="#4d4d4d" d="m105.56 0.002h-91.103c-7.9812 0-14.451 6.5137-14.451 14.547v90.911c0 8.0321 6.4686 14.542 14.45 14.542h91.103c7.977 0 14.446-6.508 14.446-14.542v-90.91c0.0009-8.0335-6.4672-14.547-14.444-14.547zm-91.103 117.19c-6.4163 0-11.636-5.262-11.636-11.729v-90.91c0-6.47 5.2198-11.733 11.636-11.733h91.103c6.415 0 11.633 5.2634 11.633 11.733v90.911c0 6.4657-5.2183 11.729-11.633 11.729h-91.103v-0.0009z"/>
 <path opacity=".25" fill="url(#linearGradient9643)" d="m-0.00041 26.206v76.8c0 4.7851 2.3072 9.0156 5.8492 11.667 4.7879-17.774 4.0738-39.867 4.0738-62.563 0-44.155-9.923-47.495-9.923-25.904z"/>
 <path opacity=".25" fill="url(#linearGradient9640)" d="m120 26.204v76.8c0 4.7851-2.3072 9.0156-5.849 11.667-4.7879-17.774-4.0739-39.865-4.0739-62.562 0.0009-44.155 9.923-47.495 9.923-25.905z"/>
 <path opacity=".25" d="m14.21 118.14c-7.1008 0-12.882-6.1289-12.882-13.665v-35.591h115.7v35.581c0 7.536-5.7733 13.665-12.873 13.665h-89.943z" fill="url(#linearGradient9637)"/>
 <g opacity=".2" fill="#fff" transform="matrix(1.4111 0 0 1.4111 .0003 .0025)">
  <path fill="#fff" d="m75.795 0h-65.556c-5.656 0-10.239 4.615-10.239 10.309v41.609c2.299-7.172 4.756-9.197 7.068-11.525 2.123-2.139 8.125-2.01 31.779-2.01v0.01c0.33-0.002 0.662-0.004 0.994-0.004 0.33 0 0.662 0.002 0.992 0.004v-0.01c18.643 0 35.012-0.129 37.135 2.01 2.314 2.328 4.771 4.353 7.07 11.525v-41.609c0.001-5.694-4.583-10.309-9.243-10.309z"/>
 </g>
 <path fill="url(#linearGradient9632)" d="m14.8 0.829c-7.1008 0-12.882 6.1289-12.882 13.665v35.581h115.7v-35.581c0-7.5361-5.7734-13.665-12.873-13.665h-89.943z"/>
 <g opacity=".8" fill="#fff" transform="matrix(1.4061 0 0 1.422 -8.4746 -8.7705)">
  <path fill="#fff" d="m79.754 6.895h-62.525c-5.557 0-10.059 4.53-10.059 10.117v2.77c0-5.587 4.502-10.118 10.059-10.118h62.525c5.555 0 10.057 4.531 10.057 10.118v-2.77c0-5.587-4.502-10.117-10.057-10.117z"/>
 </g>
</svg>
