<?xml version="1.0" encoding="UTF-8" standalone="no"?>
<svg xmlns:rdf="http://www.w3.org/1999/02/22-rdf-syntax-ns#" xmlns="http://www.w3.org/2000/svg" xml:space="preserve" height="41.324px" viewBox="0 0 29.184 41.324" width="29.184px" version="1.1" enable-background="new 0 0 29.184 41.324" y="0px" x="0px" xmlns:cc="http://creativecommons.org/ns#" xmlns:dc="http://purl.org/dc/elements/1.1/">
<path id="bgColor00" d="m25.809 17.203v-5.988c0-6.192-5.024-11.215-11.219-11.215s-11.219 5.023-11.219 11.215v5.988h-3.371v9.531c0 8.059 6.531 14.59 14.59 14.59s14.594-6.531 14.594-14.59v-9.531h-3.375m-9.446 11.485v7.156h-3.797v-7.367c-0.617-0.555-1.012-1.352-1.012-2.25 0-1.676 1.359-3.035 3.035-3.035s3.035 1.359 3.035 3.035c0.001 1.015-0.499 1.906-1.261 2.461m4.383-11.485h-11.805v-7.223c0-2.902 2.641-5.258 5.902-5.258 3.258 0 5.902 2.355 5.902 5.258v7.223z"/>
</svg>
