<?xml version="1.0" encoding="UTF-8" standalone="no"?>
<!DOCTYPE svg  PUBLIC '-//W3C//DTD SVG 1.1//EN'  'http://www.w3.org/Graphics/SVG/1.1/DTD/svg11.dtd' [
	<!ENTITY ns_svg "http://www.w3.org/2000/svg">
	<!ENTITY ns_xlink "http://www.w3.org/1999/xlink">
]>
<svg xmlns="http://www.w3.org/2000/svg" xml:space="preserve" height="85.039" viewBox="0 0 85.039 85.039" width="85.039" version="1.1" overflow="visible" xmlns:xlink="http://www.w3.org/1999/xlink" enable-background="new 0 0 85.039 85.039">
<polygon points="55.279 60.864 55.279 85.039 85.039 85.039 85.039 80.699" fill="#152B74"/>
<polygon points="0 55.283 0 61.103 8.729 55.283" fill="#152B74"/>
<polygon points="0 24.021 0 29.771 8.629 29.771" fill="#152B74"/>
<polygon points="85.039 61.104 85.039 55.283 76.309 55.283" fill="#152B74"/>
<polygon points="85.039 4.411 85.039 0 55.279 0 55.279 24.25" fill="#152B74"/>
<polygon points="0 80.701 0 85.039 29.764 85.039 29.764 60.863" fill="#152B74"/>
<polygon points="29.764 0 0 0 0 4.415 29.764 24.256" fill="#152B74"/>
<polygon points="85.039 29.771 85.039 24.021 76.412 29.771" fill="#152B74"/>
<polygon points="55.279 24.25 55.279 0 49.959 0 49.959 27.797" fill="#fff"/>
<polygon points="49.959 57.318 49.959 85.039 55.279 85.039 55.279 60.864" fill="#fff"/>
<polygon points="8.629 29.771 0 29.771 0 35.078 16.591 35.078" fill="#fff"/>
<polygon points="35.074 27.796 35.074 0 29.764 0 29.764 24.256" fill="#fff"/>
<polygon points="29.764 60.863 29.764 85.039 35.074 85.039 35.074 57.324" fill="#fff"/>
<polygon points="76.309 55.283 85.039 55.283 85.039 49.963 68.327 49.963" fill="#fff"/>
<polygon points="16.71 49.963 0 49.963 0 55.283 8.729 55.283" fill="#fff"/>
<polygon points="68.45 35.078 85.039 35.078 85.039 29.771 76.412 29.771" fill="#fff"/>
<polygon points="68.327 49.963 49.959 49.963 49.959 57.318 55.279 60.864 85.039 80.699 85.039 70.657 61.919 55.283 72.013 55.283 85.039 63.943 85.039 61.104 76.309 55.283" fill="#fff"/>
<polygon points="16.591 35.078 35.074 35.078 35.074 27.796 29.764 24.256 0 4.415 0 14.201 23.407 29.771 13.313 29.771 0 20.916 0 24.021 8.629 29.771" fill="#fff"/>
<polygon points="35.074 57.324 35.074 49.963 16.71 49.963 8.729 55.283 0 61.103 0 70.669 23.138 55.283 29.764 55.283 29.764 57.586 0 77.379 0 80.701 29.764 60.863" fill="#fff"/>
<polygon points="49.959 27.797 49.959 35.078 68.45 35.078 76.412 29.771 85.039 24.021 85.039 14.15 61.555 29.771 55.279 29.771 55.279 27.229 85.039 7.432 85.039 4.411 55.279 24.25" fill="#fff"/>
<polygon points="49.959 49.963 68.327 49.963 85.039 49.963 85.039 35.078 68.45 35.078 49.959 35.078 49.959 27.797 49.959 0 35.074 0 35.074 27.796 35.074 35.078 16.591 35.078 0 35.078 0 49.963 16.71 49.963 35.074 49.963 35.074 57.324 35.074 85.039 49.959 85.039 49.959 57.318" fill="#CE142A"/>
<polygon points="61.919 55.283 85.039 70.657 85.039 63.943 72.013 55.283" fill="#CE142A"/>
<polygon points="55.279 29.771 61.555 29.771 85.039 14.15 85.039 7.432 55.279 27.229" fill="#CE142A"/>
<polygon points="29.764 55.283 23.138 55.283 0 70.669 0 77.379 29.764 57.586" fill="#CE142A"/>
<polygon points="23.407 29.771 0 14.201 0 20.916 13.313 29.771" fill="#CE142A"/>
</svg>
