<?xml version="1.0" encoding="UTF-8" standalone="no"?>
<svg xmlns:rdf="http://www.w3.org/1999/02/22-rdf-syntax-ns#" xmlns="http://www.w3.org/2000/svg" xml:space="preserve" overflow="visible" height="42" viewBox="0 0 40.49 42" width="40.49" version="1.1" enable-background="new 0 0 40.49 42" xmlns:cc="http://creativecommons.org/ns#" xmlns:dc="http://purl.org/dc/elements/1.1/">
<path id="bgColor00" d="m34.42 0c3.355 0 6.07 2.722 6.07 6.074v29.851c0 3.356-2.715 6.075-6.07 6.075h-28.35c-3.355 0-6.07-2.719-6.07-6.075v-29.851c0-3.352 2.715-6.074 6.07-6.074h28.35m0 3.037h-28.35c-1.676 0-3.039 1.364-3.039 3.037v29.851c0 1.676 1.363 3.038 3.039 3.038h28.35c1.672 0 3.037-1.362 3.037-3.038v-29.851c0-1.673-1.365-3.037-3.037-3.037"/>
</svg>
