<?xml version="1.0" encoding="UTF-8" standalone="no"?>
<svg xmlns:rdf="http://www.w3.org/1999/02/22-rdf-syntax-ns#" xmlns="http://www.w3.org/2000/svg" height="461.31" width="461.14" version="1.1" xmlns:cc="http://creativecommons.org/ns#" xmlns:xlink="http://www.w3.org/1999/xlink" xmlns:dc="http://purl.org/dc/elements/1.1/">
 <defs>
  <linearGradient id="linearGradient2875" y2="337.49" gradientUnits="userSpaceOnUse" x2="956.5" gradientTransform="translate(-962.92 -337.49)" y1="798.78" x1="958.56">
   <stop stop-opacity=".5" offset="0"/>
   <stop stop-opacity=".8" offset="1"/>
  </linearGradient>
  <linearGradient id="linearGradient2877" y2="96.157" gradientUnits="userSpaceOnUse" x2="-727.07" gradientTransform="matrix(3.8916 0 0 3.8916 2820.5 -136.62)" y1="36.948" x1="-726.49">
   <stop stop-color="#fff" stop-opacity=".82301" offset="0"/>
   <stop stop-color="#fff" stop-opacity=".4" offset="1"/>
  </linearGradient>
 </defs>
 <g transform="translate(258)">
  <g transform="matrix(3.8916 0 0 3.8916 2829.3 -140.01)">
   <path id="bgColor00" fill="#0f0" d="m-774.71 153.31c-2.2362-1.4128-7.9055-6.8555-13.573-13.031-3.8532-4.1983-3.9916-4.4114-4.2609-6.5672-0.15311-1.2255-0.27743-19.126-0.27628-39.778 0.002-33.285 0.0716-37.716 0.61369-39.014 0.8351-1.9987 16.323-17.489 18.321-18.324 1.2922-0.53992 5.8066-0.61015 39.391-0.61281 20.862-0.002 38.774 0.12344 39.805 0.27798 1.7062 0.25586 2.2597 0.64799 6.1905 4.3862 2.3742 2.2578 6.4422 6.3566 9.0399 9.1083l4.7232 5.0031 0.25321 3.9495c0.13927 2.1722 0.1988 20.219 0.1323 40.105l-0.1209 36.155-1.1208 1.5234c-0.61645 0.83785-4.7246 5.1212-9.1293 9.5185l-8.0085 7.9951-3.3008 0.25688c-1.8154 0.14128-19.829 0.25792-40.029 0.25921l-36.729 0.002-1.9211-1.2137v0.00032z"/>
  </g>
  <path fill="url(#linearGradient2875)" d="m-72.987 0.014682c-90.986 0.087989-104.98 0.5365-109.38 2.375-7.7754 3.2488-68.064 63.534-71.314 71.314-2.1096 5.0494-2.3673 22.281-2.375 151.82-0.004 80.373 0.46669 150.04 1.0625 154.82 1.0482 8.3895 1.5986 9.2246 16.594 25.563 22.056 24.031 44.111 45.189 52.813 50.688l7.4688 4.719h142.94c78.614-0.004 148.72-0.45022 155.78-1l12.844-1 31.157-31.125c17.141-17.113 33.133-33.771 35.531-37.032l4.3749-5.9374 0.46878-140.69c0.25879-77.384 0.0117-147.61-0.5312-156.06l-0.96-15.38-18.38-19.469c-10.1-10.708-25.94-26.682-35.18-35.469-15.3-14.548-17.46-16.067-24.1-17.063-4.01-0.60114-73.72-1.07-154.91-1.0623-16.337 0.001292-30.909-0.012453-43.905 0zm1.4688 7.1563c12.594-0.012064 26.733 0.00125 42.562 0 78.665-0.00778 146.21 0.44851 150.1 1.0313 6.4336 0.96477 8.5218 2.4671 23.344 16.563 8.9526 8.5137 24.267 23.968 34.063 34.344l17.813 18.844 0.96882 14.906c0.52501 8.1907 0.75069 76.236 0.49999 151.22l-0.46878 136.35-4.2189 5.7187c-2.3244 3.1593-17.829 19.325-34.438 35.907l-30.188 30.156-12.438 0.96877c-6.8453 0.53268-74.769 0.96391-150.94 0.96874h-138.48l-7.25-4.5625c-8.4323-5.3272-29.786-25.872-51.155-49.155-14.53-15.831-15.078-16.621-16.094-24.75-0.57732-4.6209-1.0356-72.127-1.0312-150 0.008-125.51 0.26853-142.2 2.3125-147.09 3.1489-7.5365 61.561-65.947 69.095-69.095 4.2636-1.7814 17.809-2.2273 105.97-2.3125z"/>
  <path fill="url(#linearGradient2877)" d="m-29.129 7.1636c-126.64 0.010118-143.66 0.27661-148.53 2.3125-7.5341 3.1479-65.947 61.557-69.095 69.095-1.9463 4.6586-2.2786 21.157-2.3125 130.97 25.42 4.61 154.99 27.512 224.5 28.032 64.733 0.48349 179.21-16.84 222.28-23.75 0.1043-61.943-0.11091-113.92-0.56249-120.97l-0.94-14.875-17.81-18.875c-9.8-10.376-25.14-25.83-34.1-34.344-14.82-14.096-16.91-15.567-23.34-16.532-3.89-0.5823-71.431-1.0699-150.1-1.0621z"/>
 </g>
</svg>
