<?xml version="1.0" encoding="UTF-8" standalone="no"?>
<svg xmlns:rdf="http://www.w3.org/1999/02/22-rdf-syntax-ns#" xmlns="http://www.w3.org/2000/svg" contentScriptType="text/ecmascript" height="122.81" width="122.81" contentStyleType="text/css" version="1.1" zoomAndPan="magnify" preserveAspectRatio="xMidYMid meet" xmlns:cc="http://creativecommons.org/ns#" xmlns:xlink="http://www.w3.org/1999/xlink" viewBox="0 0 122.80526 122.806" xmlns:dc="http://purl.org/dc/elements/1.1/">
 <path fill="#333" d="m15.868 0c-8.7495 0-15.868 7.181-15.868 15.968v90.901c0 8.7857 7.1217 15.937 15.869 15.937h91.069c8.7428 0 15.869-7.1491 15.869-15.937v-90.901c0-8.7885-7.13-15.969-15.87-15.969h-91.072zm91.069 5.6247c5.6682 0 10.236 4.6318 10.236 10.343v90.901c0 5.708-4.5641 10.312-10.236 10.312h-90.979c-6.2059-0.38-9.1693-4.74-10.364-10.4v-90.807c-0.0002-5.712 4.595-10.348 10.268-10.348l91.072-0.0003z" fill-opacity=".55"/>
 <path id="bgColor00" fill="#003380" d="m106.96 1.404h-91.103c-7.9812 0-14.451 6.5137-14.451 14.547v90.911c0 8.0321 6.4686 14.542 14.45 14.542h91.104c7.977 0 14.446-6.5081 14.446-14.542v-90.909c-0.01-8.033-6.48-14.547-14.45-14.547z"/>
 <path opacity=".8" d="m106.96 1.404h-91.103c-7.9812 0-14.451 6.5137-14.451 14.547v90.911c0 8.0321 6.4686 14.542 14.45 14.542h91.103c7.977 0 14.446-6.508 14.446-14.542v-90.91c0.0009-8.0335-6.4672-14.547-14.444-14.547zm-91.103 117.19c-6.4163 0-11.636-5.262-11.636-11.729v-90.91c0-6.47 5.2198-11.733 11.636-11.733h91.103c6.415 0 11.633 5.2634 11.633 11.733v90.911c0 6.4657-5.2183 11.729-11.633 11.729h-91.103v-0.0009z" fill="#333"/>
</svg>
