<?xml version="1.0" encoding="UTF-8" standalone="no"?>
<svg xmlns:rdf="http://www.w3.org/1999/02/22-rdf-syntax-ns#" xmlns="http://www.w3.org/2000/svg" contentScriptType="text/ecmascript" height="122.87" width="122.88" contentStyleType="text/css" version="1.1" zoomAndPan="magnify" preserveAspectRatio="xMidYMid meet" xmlns:cc="http://creativecommons.org/ns#" xmlns:xlink="http://www.w3.org/1999/xlink" viewBox="0 0 122.87553 122.87202" xmlns:dc="http://purl.org/dc/elements/1.1/">
 <path id="bgColor00" d="m61.44 1.7509c-32.94 0-59.645 26.68-59.645 59.589s26.704 59.59 59.645 59.59h-0.13c32.94 0 59.647-26.68 59.647-59.59 0-32.909-26.704-59.589-59.647-59.589h0.13z" fill="#003380"/>
 <path d="m61.44 1.7509c-32.94 0-59.645 26.68-59.645 59.589s26.704 59.59 59.645 59.59h-0.12584c32.94 0 59.647-26.68 59.647-59.59 0-32.909-26.704-59.589-59.647-59.589h0.12584zm-22.123 111.92c-13.903-5.83-23.932-16.767-30.251-30.226-6.1187-14.397-5.4388-29.777-0.0003-44.205 5.8383-13.9 16.788-23.914 30.251-30.223 7.005-2.9602 14.448-4.4611 22.123-4.4611h-0.12584c7.6746 0 15.118 1.501 22.123 4.4609 13.902 5.8286 23.933 16.764 30.251 30.223 6.1195 14.399 5.4392 29.776 0 44.206-5.8388 13.898-16.789 23.914-30.251 30.223-7.0055 2.9599-14.45 4.4622-22.123 4.4622h0.12583c-7.6885 0.16032-15-1.7813-22.123-4.4622z" fill="#333"/>
 <path fill="#333" d="m61.5 0c-33.931 0-61.5 27.532-61.5 61.436 0 33.903 27.569 61.436 61.501 61.436h-0.125c33.931 0 61.501-27.531 61.501-61.436 0-33.901-27.571-61.434-61.505-61.434h0.125zm0 6.4998h-0.125c7.439 0 14.629 1.4175 21.406 4.2811 13.416 5.6247 23.117 16.15 29.281 29.249 0.0101 0.0214 0.0212 0.0411 0.0312 0.0625 5.8775 13.88 5.243 28.685-0.0312 42.718-0.008 0.0218-0.023 0.0407-0.0312 0.0625-5.6407 13.377-16.169 23.04-29.25 29.187-0.009 0.004-0.0222-0.004-0.0312 0-0.013 0.006-0.0182 0.0251-0.0312 0.0312-6.763 2.8475-13.935 4.2811-21.344 4.2811h0.125c-0.0104-0.00009-0.0208-0.00009-0.0312 0-7.3314 0.15286-14.387-1.687-21.375-4.3124-0.0217-0.009-0.0408-0.0221-0.0625-0.0312-13.383-5.6307-23.064-16.141-29.219-29.218-0.004-0.009 0.004-0.0221 0-0.0312-0.006-0.0131-0.0251-0.0182-0.0312-0.0312-5.8764-13.879-5.2422-28.686 0.0312-42.718 0.009-0.0217 0.0221-0.0408 0.0312-0.0625 5.6399-13.379 16.168-23.041 29.25-29.187 0.0213-0.01 0.0412-0.0212 0.0625-0.0312 6.7588-2.8455 13.928-4.2499 21.344-4.2499v-0.00015z" fill-opacity=".55"/>
</svg>
