<?xml version="1.0" encoding="UTF-8" standalone="no"?>
<svg xmlns="http://www.w3.org/2000/svg" xml:space="preserve" height="64.05" width="64.05" version="1.1" viewBox="0 0 64.05 64.05">
<g id="bgColor00" fill="#a0a0a0">
	<rect y="0" width="64.048" x="0" height="64.05"/>
	<rect y="0" width="64.048" x="0" height="64.05"/>
	<rect y="0" width="64.048" x="0" height="64.05"/>
</g>
<path opacity="0.52" fill="#fff" d="m0.197 0.431 0.071 63.246h63.341l0.165-63.161-63.577-0.085zm62.829 63.102h-62.593v-62.827h62.593v62.827z"/>
<linearGradient id="SVGID_1_" y2="63.472" gradientUnits="userSpaceOnUse" x2="31.73" y1=".55470" x1="31.73">
	<stop stop-color="#fff" stop-opacity="0.65" offset="0"/>
	<stop stop-color="#fff" stop-opacity=".2568" offset=".27080"/>
	<stop stop-color="#fff" stop-opacity="0.21" offset=".303"/>
	<stop stop-color="#fff" stop-opacity="0.6" offset=".5273"/>
	<stop stop-color="#fff" stop-opacity=".56" offset=".66060"/>
	<stop stop-color="#fff" stop-opacity="0.26" offset=".80610"/>
	<stop stop-color="#fff" stop-opacity="0.98" offset="1"/>
</linearGradient>
<path fill="url(#SVGID_1_)" d="m0.433 0.706v62.827h62.593v-62.827h-62.593zm61.197 59.79h-59.211v-58.078h59.211v58.078z"/>
<g opacity=".25">
	<rect y="60.496" width="59.211" x="2.419" height=".588"/>
	<rect y="60.496" width="59.211" x="2.419" height=".588"/>
	<rect y="60.496" width="59.211" x="2.419" height=".588"/>
</g>
<g opacity=".25">
	<path d="m2.419 2.418v58.078h59.211v-58.078h-59.211zm58.704 57.576h-58.194v-57.076h58.193v57.076z"/>
</g>
<g opacity="0.07">
	<path d="m2.929 2.918v57.076h58.193v-57.076h-58.193zm57.631 56.527h-57.07v-55.977h57.07v55.977z"/>
</g>
<g opacity="0.23">
	<path fill="#fff" d="m3.49 3.468v55.977h57.07v-55.977h-57.07zm56.411 55.328h-55.751v-54.681h55.751v54.681z"/>
</g>
<linearGradient id="SVGID_2_" y2="58.067" gradientUnits="userSpaceOnUse" x2="32.025" y1="4.2778" x1="32.025">
	<stop stop-color="#fff" stop-opacity="0.7" offset="0"/>
	<stop stop-color="#fff" offset="1"/>
</linearGradient>
<path fill="url(#SVGID_2_)" d="m4.15 4.115v54.682h55.751v-54.682h-55.751zm54.323 52.968h-52.897v-51.886h52.897v51.886z"/>
<linearGradient id="rect5865_1_" y2="722.05" gradientUnits="userSpaceOnUse" x2="463.46" gradientTransform="translate(-431.44 -665.65)" y1="671.01" x1="463.46">
	<stop stop-color="#fff" stop-opacity="0.6" offset="0"/>
	<stop stop-color="#fff" offset="1"/>
</linearGradient>
<rect height="51.886" width="52.897" y="5.197" x="5.576" fill="url(#rect5865_1_)"/>
</svg>
