<?xml version="1.0" encoding="UTF-8" standalone="no"?>
<svg xmlns="http://www.w3.org/2000/svg" xml:space="preserve" height="600" width="600" version="1.1" viewBox="0 0 600 600">
<g transform="scale(1.4048)">
			<linearGradient id="path6985_1_" y2="286.23" gradientUnits="userSpaceOnUse" x2="40.236" gradientTransform="matrix(5.0776 0 0 -5.0777 -5.724 2102.5)" y1="417.06" x1="44.736">
			<stop stop-color="#4d4d4d" offset="0"/>
			<stop stop-color="#474747" offset=".20470"/>
			<stop stop-color="#383838" offset=".45680"/>
			<stop stop-color="#1f1f1f" offset=".7324"/>
			<stop offset="1"/>
		</linearGradient>
		<path opacity=".25" fill="url(#path6985_1_)" d="m382.84 329.98c0 29.147-23.603 52.862-52.616 52.862h-233.34c-29.013 0-52.623-23.715-52.623-52.862v-232.86c0-29.15 23.606-52.868 52.623-52.868h233.35c29.009 0 52.616 23.718 52.616 52.868v232.86h-0.003zm-52.61-329.98h-233.35c-53.42 0-96.88 43.569-96.88 97.124v232.86c0 53.549 43.46 97.117 96.882 97.117h233.35c53.414 0 96.875-43.568 96.875-97.117v-232.84c0.01-53.557-43.47-97.125-96.88-97.125l0.01-0.015z"/>
			<linearGradient id="path6998_1_" y2="291.07" gradientUnits="userSpaceOnUse" x2="41.794" gradientTransform="matrix(5.0776 0 0 -5.0777 -5.724 2102.5)" y1="415.64" x1="43.935">
			<stop stop-color="#4d4d4d" offset="0"/>
			<stop stop-color="#474747" offset=".20470"/>
			<stop stop-color="#383838" offset=".45680"/>
			<stop stop-color="#1f1f1f" offset=".7324"/>
			<stop offset="1"/>
		</linearGradient>
		<path opacity=".625" fill="url(#path6998_1_)" d="m382.84 329.98c0 29.147-23.603 52.862-52.616 52.862h-233.34c-29.013 0-52.623-23.715-52.623-52.862v-232.86c0-29.15 23.606-52.868 52.623-52.868h233.35c29.009 0 52.616 23.718 52.616 52.868v232.86h-0.003zm-52.61-324.86h-233.35c-50.593 0-91.755 41.273-91.755 92.002v232.86c0 50.726 41.165 91.995 91.757 91.995h233.35c50.591 0 91.749-41.27 91.749-91.995v-232.87c0-50.729-41.168-92.002-91.756-92.002l0.004 0.011z"/>
			<linearGradient id="path7011_1_" y2="295.82" gradientUnits="userSpaceOnUse" x2="43.186" gradientTransform="matrix(5.0776 0 0 -5.0777 -5.724 2102.5)" y1="414.19" x1="43.186">
			<stop stop-color="#4d4d4d" offset="0"/>
			<stop stop-color="#474747" offset=".20470"/>
			<stop stop-color="#383838" offset=".45680"/>
			<stop stop-color="#1f1f1f" offset=".7324"/>
			<stop offset="1"/>
		</linearGradient>
		<path fill="url(#path7011_1_)" d="m382.84 329.98c0 29.147-23.603 52.862-52.616 52.862h-233.34c-29.013 0-52.623-23.715-52.623-52.862v-232.86c0-29.15 23.606-52.868 52.623-52.868h233.35c29.009 0 52.616 23.718 52.616 52.868v232.86h-0.003zm-52.61-319.74h-233.35c-47.769 0-86.635 38.975-86.635 86.881v232.86c0 47.903 38.866 86.87 86.635 86.87h233.35c47.765 0 86.628-38.967 86.628-86.87v-232.86c0-47.906-38.856-86.881-86.625-86.881l-0.006 0.004z"/>
		<linearGradient id="path7032_1_" y2="294.9" gradientUnits="userSpaceOnUse" x2="43.185" gradientTransform="matrix(5.0776 0 0 -5.0777 -5.724 2102.5)" y1="414.01" x1="43.185">
		<stop stop-color="#696969" offset="0"/>
		<stop stop-color="#6e6e6e" offset=".1198"/>
		<stop stop-color="#7a7a7a" offset=".2472"/>
		<stop stop-color="#fff" offset=".47750"/>
		<stop stop-color="#ededed" offset="0.573"/>
		<stop stop-color="#383838" offset=".6067"/>
		<stop stop-color="#141414" offset=".64610"/>
		<stop stop-color="#828282" offset=".73030"/>
		<stop offset=".8933"/>
	</linearGradient>
	<path fill="url(#path7032_1_)" d="m330.23 13.37h-233.35c-46.048 0-83.509 37.572-83.509 83.754v232.86c0 46.179 37.46 83.751 83.509 83.751h233.35c46.041 0 83.501-37.572 83.501-83.751v-232.87c0-46.182-37.482-83.754-83.516-83.754l0.012 0.014zm52.615 316.61c0 29.147-23.602 52.862-52.616 52.862h-233.34c-29.013 0-52.623-23.715-52.623-52.862v-232.86c0-29.15 23.606-52.868 52.623-52.868h233.35c29.01 0 52.616 23.718 52.616 52.868v232.86h-0.004z"/>
	<path fill="#fff" d="m330.23 44.256h-233.35c-29.013 0-52.623 23.718-52.623 52.868v232.86c0 29.147 23.606 52.862 52.623 52.862h233.35c29.01 0 52.616-23.715 52.616-52.862v-232.86c0-29.15-23.599-52.868-52.612-52.868h-0.007zm49.485 285.73c0 27.423-22.2 49.732-49.482 49.732h-233.38c-27.289 0-49.489-22.309-49.489-49.732v-232.85c0.004-27.427 22.208-49.74 49.493-49.74h233.35c27.286 0 49.482 22.312 49.482 49.739v232.86l0.018-0.015z"/>
		<linearGradient id="path7047_1_" y2="304.67" gradientUnits="userSpaceOnUse" x2="28.095" gradientTransform="matrix(5.0776 0 0 -5.0777 -5.724 2102.5)" y1="412.14" x1="52.179">
		<stop stop-color="#666" offset=".0056"/>
		<stop stop-color="#d1d1d1" offset=".18540"/>
		<stop stop-color="#e3e3e3" offset=".24160"/>
		<stop stop-color="#fff" offset=".43260"/>
		<stop stop-color="#1a1a1a" offset=".80340"/>
	</linearGradient>
	<path fill="url(#path7047_1_)" d="m330.23 47.385h-233.35c-27.289 0-49.489 22.312-49.489 49.739v232.86c0 27.423 22.204 49.732 49.489 49.732h233.35c27.286 0 49.482-22.309 49.482-49.732v-232.84c0-27.426-22.2-49.739-49.485-49.739v-0.015zm38.143 282.6c0 21.167-17.107 38.39-38.143 38.39h-233.35c-21.036 0-38.151-17.223-38.151-38.39v-232.87c0-21.17 17.111-38.396 38.151-38.396h233.35c21.032 0 38.144 17.226 38.144 38.396v232.86l-0.004 0.014z"/>
		<linearGradient id="path7058_1_" y2="302.1" gradientUnits="userSpaceOnUse" x2="43.185" gradientTransform="matrix(5.0776 0 0 -5.0777 -5.724 2102.5)" y1="422.93" x1="43.185">
		<stop stop-color="#666" offset=".0056"/>
		<stop stop-color="#d1d1d1" offset=".30340"/>
		<stop stop-color="#fff" offset=".46630"/>
		<stop stop-color="#1a1a1a" offset=".80340"/>
	</linearGradient>
	<path fill="url(#path7058_1_)" d="m330.23 58.728h-233.35c-21.036 0-38.151 17.226-38.151 38.396v232.86c0 21.167 17.111 38.39 38.151 38.39h233.35c21.032 0 38.144-17.223 38.144-38.39v-232.87c0-21.17-17.118-38.396-38.154-38.396l0.007 0.014zm37.008 271.25c0 20.577-16.569 37.254-37.005 37.254h-233.35c-20.443 0-37.012-16.674-37.012-37.254v-232.85c0.003-20.576 16.572-37.26 37.015-37.26h233.35c20.436 0 37.004 16.681 37.004 37.261v232.86l-0.01-0.007z"/>
		<linearGradient id="path7065_1_" y2="426.91" gradientUnits="userSpaceOnUse" x2="43.184" gradientTransform="matrix(5.0776 0 0 -5.0777 -5.724 2102.5)" y1="369.94" x1="43.184">
		<stop stop-color="#525252" offset="0.427"/>
		<stop stop-color="#0d0d0d" offset=".77530"/>
	</linearGradient>
	<path fill="url(#path7065_1_)" d="m53.042 163.04c2.277-5.002 5.689 3.842 5.689 3.842v-69.756c0-21.17 17.111-38.396 38.151-38.396h233.35c21.032 0 38.144 17.226 38.144 38.396v69.759s2.111-5.201 6.658-2.02 4.684 41.779 4.684 41.779v-109.52c0-27.426-22.199-49.739-49.482-49.739h-233.36c-27.289 0-49.489 22.312-49.489 49.739v109.52c-0.003 0 3.372-38.595 5.649-43.601h0.014z"/>
</g>
<path id="bgColor00" fill="#7f7c7c" d="m515.9 462.57c0 28.907-23.275 52.336-51.984 52.336h-327.81c-28.719 0-51.994-23.424-51.994-52.336v-327.12c0-28.907 23.275-52.346 51.994-52.346h327.81c28.708 0 51.983 23.434 51.983 52.346v327.12l-0.014-0.011z"/>
</svg>
