<?xml version="1.0" encoding="UTF-8" standalone="no"?>
<!DOCTYPE svg  PUBLIC '-//W3C//DTD SVG 1.1//EN'  'http://www.w3.org/Graphics/SVG/1.1/DTD/svg11.dtd'>
<svg xmlns="http://www.w3.org/2000/svg" xml:space="preserve" height="166px" viewBox="0 0 166 166" width="166px" version="1.1" y="0px" x="0px" xmlns:xlink="http://www.w3.org/1999/xlink" enable-background="new 0 0 166 166">
			<linearGradient id="SVGID_1_" y2="-277.28" gradientUnits="userSpaceOnUse" x2="240.15" gradientTransform="matrix(1 0 0 -1 -157.15 -80.73)" y1="-78.702" x1="240.15">
			<stop stop-color="#4D4D4D" offset="0"/>
			<stop stop-color="#474747" offset=".2047"/>
			<stop stop-color="#383838" offset=".4568"/>
			<stop stop-color="#1F1F1F" offset=".7324"/>
			<stop offset="1"/>
		</linearGradient>
		<path opacity=".25" enable-background="new    " d="m148.8 120.72c0 5.636-3.151 8.769-4.501 10.104l-13.361 13.453c-1.334 1.353-4.455 4.521-10.074 4.521h-75.731c-5.637 0-8.758-3.184-10.092-4.542l-13.345-13.433c-1.348-1.338-4.5-4.471-4.5-10.105v-75.44c0-5.626 3.147-8.758 4.491-10.096l13.354-13.439c1.334-1.358 4.455-4.542 10.092-4.542h75.722c5.621 0 8.74 3.171 10.074 4.523l13.373 13.458c1.344 1.338 4.489 4.47 4.489 10.096v75.44zm7.64-97.728l-13.26-13.352c-2.341-2.376-9.5-9.64-22.316-9.64h-75.721c-12.862 0-20.02 7.3-22.371 9.698l-13.114 13.198c-2.378 2.366-9.654 9.611-9.654 22.383v75.442c0 12.797 7.211 19.953 9.58 22.307l13.207 13.293c2.332 2.38 9.489 9.68 22.352 9.68h75.722c12.832 0 19.979-7.268 22.33-9.656l13.154-13.242c2.372-2.355 9.654-9.586 9.654-22.381v-75.441c0.01-12.779-7.19-19.936-9.55-22.287z" fill="url(#SVGID_1_)"/>
			<linearGradient id="SVGID_2_" y2="-274.56" gradientUnits="userSpaceOnUse" x2="240.15" gradientTransform="matrix(1 0 0 -1 -157.15 -80.73)" y1="-80.742" x1="240.15">
			<stop stop-color="#4D4D4D" offset="0"/>
			<stop stop-color="#474747" offset=".2047"/>
			<stop stop-color="#383838" offset=".4568"/>
			<stop stop-color="#1F1F1F" offset=".7324"/>
			<stop offset="1"/>
		</linearGradient>
		<path opacity=".625" enable-background="new    " d="m148.8 120.72c0 5.635-3.151 8.768-4.501 10.105l-13.361 13.451c-1.334 1.353-4.457 4.522-10.074 4.522h-75.731c-5.637 0-8.758-3.185-10.092-4.543l-13.344-13.433c-1.348-1.338-4.5-4.471-4.5-10.104v-75.44c0-5.627 3.146-8.758 4.491-10.097l13.354-13.439c1.334-1.358 4.456-4.542 10.092-4.542h75.723c5.619 0 8.74 3.17 10.074 4.522l13.371 13.458c1.346 1.339 4.49 4.47 4.49 10.097l0.01 75.441zm6.24-96.317l-13.271-13.36c-2.201-2.234-8.92-9.052-20.904-9.052h-75.731c-12.023 0-18.742 6.849-20.949 9.101l-13.124 13.207c-2.282 2.271-9.075 9.034-9.075 20.98v75.442c0 11.965 6.768 18.686 8.992 20.893l13.216 13.305c2.198 2.242 8.917 9.091 20.939 9.091h75.723c11.992 0 18.703-6.819 20.91-9.062l13.162-13.249c2.271-2.257 9.074-9.013 9.074-20.978v-75.441c0.01-11.949-6.74-18.668-8.96-20.876z" fill="url(#SVGID_2_)"/>
			<linearGradient id="SVGID_3_" y2="-271.84" gradientUnits="userSpaceOnUse" x2="240.15" gradientTransform="matrix(1 0 0 -1 -157.15 -80.73)" y1="-82.782" x1="240.15">
			<stop stop-color="#4D4D4D" offset="0"/>
			<stop stop-color="#474747" offset=".2047"/>
			<stop stop-color="#383838" offset=".4568"/>
			<stop stop-color="#1F1F1F" offset=".7324"/>
			<stop offset="1"/>
		</linearGradient>
		<path d="m148.8 120.72c0 5.633-3.151 8.766-4.501 10.104l-13.363 13.45c-1.332 1.353-4.455 4.523-10.072 4.523h-75.731c-5.637 0-8.759-3.186-10.093-4.544l-13.344-13.431c-1.348-1.34-4.5-4.473-4.5-10.105v-75.44c0-5.627 3.146-8.758 4.49-10.097l13.354-13.439c1.334-1.358 4.456-4.541 10.093-4.541h75.722c5.619 0 8.74 3.169 10.074 4.522l13.371 13.458c1.346 1.339 4.491 4.47 4.491 10.097v75.44zm4.83-94.905l-13.279-13.368c-2.063-2.094-8.34-8.465-19.492-8.465h-75.721c-11.184 0-17.464 6.399-19.527 8.503l-13.133 13.218c-2.186 2.176-8.496 8.456-8.496 19.577v75.441c0 11.135 6.324 17.418 8.403 19.48l13.226 13.313c2.063 2.104 8.344 8.504 19.527 8.504h75.722c11.152 0 17.43-6.371 19.492-8.468l13.168-13.256c2.172-2.155 8.496-8.438 8.496-19.573v-75.431c0-11.12-6.31-17.401-8.39-19.464z" fill="url(#SVGID_3_)"/>
		<linearGradient id="SVGID_4_" y2="-245.88" gradientUnits="userSpaceOnUse" x2="240.15" gradientTransform="matrix(1 0 0 -1 -157.15 -80.73)" y1="-79.795" x1="240.15">
		<stop stop-color="#696969" offset="0"/>
		<stop stop-color="#6E6E6E" offset=".1198"/>
		<stop stop-color="#7A7A7A" offset=".2472"/>
		<stop stop-color="#fff" offset=".4775"/>
		<stop stop-color="#EDEDED" offset=".573"/>
		<stop stop-color="#383838" offset=".6067"/>
		<stop stop-color="#141414" offset=".6461"/>
		<stop stop-color="#828282" offset=".7303"/>
		<stop offset=".8933"/>
	</linearGradient>
	<path d="m152.78 26.674l-13.29-13.374c-1.973-2.005-7.979-8.105-18.625-8.105h-75.721c-10.674 0-16.686 6.127-18.661 8.141l-13.254 13.338c-1.985 1.976-8.025 7.99-8.025 18.605v75.442c0 10.629 6.054 16.645 8.043 18.618l13.236 13.324c1.976 2.015 7.987 8.142 18.661 8.142h75.722c10.645 0 16.652-6.103 18.627-8.105l13.171-13.258c2.089-2.076 8.144-8.092 8.144-18.721v-75.441c0-10.615-6.04-16.63-8.02-18.605zm-3.98 94.046c0 5.633-3.151 8.766-4.501 10.104l-13.363 13.45c-1.332 1.353-4.455 4.523-10.072 4.523h-75.731c-5.637 0-8.759-3.186-10.093-4.544l-13.344-13.431c-1.348-1.34-4.5-4.473-4.5-10.105v-75.44c0-5.627 3.146-8.758 4.49-10.097l13.354-13.439c1.334-1.358 4.456-4.541 10.093-4.541h75.722c5.619 0 8.74 3.169 10.074 4.522l13.371 13.458c1.346 1.339 4.491 4.47 4.491 10.097v75.44z" fill="url(#SVGID_4_)"/>
		<linearGradient id="SVGID_5_" y2="-249.02" gradientUnits="userSpaceOnUse" x2="211.9" gradientTransform="matrix(1 0 0 -1 -157.15 -80.73)" y1="-63.722" x1="273.27">
		<stop stop-color="#666" offset=".0056"/>
		<stop stop-color="#D1D1D1" offset=".1854"/>
		<stop stop-color="#E3E3E3" offset=".2416"/>
		<stop stop-color="#fff" offset=".4326"/>
		<stop stop-color="#1A1A1A" offset=".8034"/>
	</linearGradient>
	<path d="m143.45 36.044l-13.382-13.467c-1.33-1.35-4.098-4.16-9.207-4.16h-75.721c-5.124 0-7.895 2.821-9.225 4.179l-13.364 13.448c-1.341 1.336-4.131 4.113-4.131 9.233v75.44c0 5.131 2.796 7.907 4.141 9.244l13.354 13.441c1.33 1.357 4.101 4.179 9.225 4.179h75.722c5.107 0 7.877-2.81 9.205-4.162l13.375-13.458c1.344-1.337 4.14-4.113 4.14-9.244v-75.44c0-5.123-2.79-7.9-4.13-9.236zm-0.28 84.676c0 3.297-1.708 4.994-2.839 6.116l-13.406 13.494c-1.117 1.133-2.803 2.846-6.066 2.846h-75.711c-3.275 0-4.962-1.719-6.078-2.856l-13.396-13.482c-1.13-1.122-2.839-2.82-2.839-6.116v-75.44c0-3.287 1.705-4.985 2.834-6.108l13.4-13.486c1.116-1.139 2.803-2.859 6.078-2.859h75.723c3.264 0 4.951 1.712 6.065 2.845l13.411 13.5c1.128 1.123 2.834 2.821 2.834 6.108l0.01 75.44z" fill="url(#SVGID_5_)"/>
		<linearGradient id="SVGID_6_" y2="-228.72" gradientUnits="userSpaceOnUse" x2="240.15" gradientTransform="matrix(1 0 0 -1 -157.15 -80.73)" y1="-58.708" x1="240.15">
		<stop stop-color="#666" offset=".0056"/>
		<stop stop-color="#D1D1D1" offset=".3034"/>
		<stop stop-color="#fff" offset=".4663"/>
		<stop stop-color="#1A1A1A" offset=".8034"/>
	</linearGradient>
	<path d="m140.34 39.169l-13.41-13.498c-1.115-1.133-2.805-2.845-6.068-2.845h-75.721c-3.273 0-4.961 1.719-6.077 2.857l-13.402 13.486c-1.127 1.123-2.834 2.821-2.834 6.109v75.44c0 3.296 1.71 4.993 2.84 6.115l13.396 13.481c1.116 1.14 2.804 2.858 6.077 2.858h75.722c3.265 0 4.949-1.714 6.066-2.847l13.408-13.494c1.131-1.122 2.837-2.82 2.837-6.115v-75.44c-0.01-3.29-1.71-4.988-2.84-6.111zm2.39 81.551c0 3.306-1.795 4.882-2.912 6.005-0.58 0.588-12.213 12.293-12.993 13.08-1.12 1.121-2.683 2.93-5.964 2.93h-75.723c-3.281 0-4.848-1.805-5.965-2.93-0.779-0.785-12.412-12.492-12.994-13.08-1.117-1.123-2.911-2.699-2.911-6.005v-75.44c0-3.304 1.794-4.878 2.911-6.003 0.582-0.587 12.215-12.292 12.994-13.077 1.117-1.125 2.684-2.93 5.965-2.93h75.723c3.281 0 4.844 1.805 5.964 2.927 0.78 0.788 12.413 12.493 12.993 13.08 1.117 1.125 2.912 2.7 2.912 6.003v75.44z" fill="url(#SVGID_6_)"/>
		<linearGradient id="SVGID_7_" y2="-92.82" gradientUnits="userSpaceOnUse" x2="240.2" gradientTransform="matrix(1 0 0 -1 -157.15 -80.73)" y1="-168.28" x1="240.2">
		<stop stop-color="#525252" offset=".427"/>
		<stop stop-color="#0D0D0D" offset=".7753"/>
	</linearGradient>
	<path d="m20.891 60.703c1.352-1.951 1.988 6.919 1.988 6.919v-22.345c0-3.287 1.705-4.985 2.833-6.108l13.4-13.486c1.116-1.139 2.804-2.859 6.079-2.859h75.721c3.266 0 4.951 1.712 6.066 2.845l13.412 13.5c1.127 1.123 2.834 2.821 2.834 6.108v22.345s1.119-8.837 2.315-7.398c1.759 2.111 2.092 21.447 2.092 21.447v-36.394c0-5.12-2.791-7.896-4.132-9.233l-13.379-13.467c-1.331-1.35-4.1-4.16-9.21-4.16h-75.72c-5.125 0-7.895 2.821-9.225 4.179l-13.363 13.448c-1.34 1.336-4.131 4.113-4.131 9.233v36.393s0.262-17.851 2.42-20.967z" fill="url(#SVGID_7_)"/>
	<path d="m144.31 35.182l-13.373-13.458c-1.334-1.353-4.453-4.523-10.074-4.523h-75.731c-5.637 0-8.758 3.185-10.092 4.542l-13.354 13.439c-1.344 1.338-4.491 4.47-4.491 10.096v75.44c0 5.636 3.152 8.769 4.5 10.104l13.345 13.434c1.334 1.357 4.455 4.542 10.092 4.542h75.722c5.619 0 8.74-3.17 10.074-4.522l13.361-13.451c1.35-1.338 4.501-4.471 4.501-10.105v-75.44c0.01-5.628-3.14-8.76-4.48-10.098zm3.27 85.538c0 5.127-2.796 7.907-4.141 9.24l-13.373 13.46c-1.332 1.353-4.101 4.16-9.207 4.16h-75.721c-5.122 0-7.895-2.822-9.225-4.177l-13.354-13.44c-1.345-1.333-4.141-4.113-4.141-9.24v-75.441c0-5.121 2.791-7.899 4.13-9.234l13.364-13.449c1.33-1.357 4.103-4.179 9.225-4.179h75.723c5.111 0 7.879 2.81 9.209 4.16l13.38 13.468c1.341 1.335 4.132 4.113 4.132 9.234v75.441z" fill="#fff"/>
<path id="bgColor00" d="m141.73 119.72c0 3.307-1.795 4.883-2.912 6.005-0.579 0.589-12.213 12.293-12.991 13.079-1.121 1.122-2.685 2.932-5.966 2.932h-75.722c-3.281 0-4.848-1.807-5.965-2.932-0.779-0.783-12.412-12.49-12.994-13.079-1.117-1.122-2.911-2.698-2.911-6.005v-75.44c0-3.304 1.794-4.878 2.911-6.003 0.582-0.586 12.215-12.291 12.994-13.076 1.117-1.125 2.684-2.93 5.965-2.93h75.722c3.281 0 4.845 1.805 5.966 2.927 0.778 0.788 12.412 12.493 12.991 13.08 1.117 1.125 2.912 2.7 2.912 6.003v75.439z" fill="#7F7C7C"/>
</svg>
