<?xml version="1.0" encoding="UTF-8" standalone="no"?>
<svg xmlns="http://www.w3.org/2000/svg" xml:space="preserve" height="119.45" width="119.46" version="1.1" viewBox="0 0 119.46 119.45">
<g transform="scale(1.4048)">
			<linearGradient id="path8153_1_" y2="-230.94" gradientUnits="userSpaceOnUse" x2="296.67" gradientTransform="matrix(1.0109 0 0 -1.0109 -239.37 -89.676)" y1="-81.425" x1="270.08">
			<stop stop-color="#4d4d4d" offset="0"/>
			<stop stop-color="#474747" offset=".20470"/>
			<stop stop-color="#383838" offset=".45680"/>
			<stop stop-color="#1f1f1f" offset=".7324"/>
			<stop offset="1"/>
		</linearGradient>
		<path opacity=".25" fill="url(#path8153_1_)" d="m42.518 76.218c-18.613 0-33.702-15.09-33.702-33.703-0.001-18.615 15.088-33.705 33.702-33.705 18.613 0 33.705 15.09 33.705 33.705 0 18.613-15.092 33.703-33.705 33.703zm0.001-76.218c-23.442 0-42.516 19.073-42.516 42.515s19.073 42.514 42.516 42.514 42.514-19.072 42.514-42.514c0-23.439-19.074-42.511-42.517-42.511l0.003-0.004z"/>
			<linearGradient id="path8166_1_" y2="-228.54" gradientUnits="userSpaceOnUse" x2="296.24" gradientTransform="matrix(1.0109 0 0 -1.0109 -239.37 -89.676)" y1="-82.606" x1="270.29">
			<stop stop-color="#4d4d4d" offset="0"/>
			<stop stop-color="#474747" offset=".20470"/>
			<stop stop-color="#383838" offset=".45680"/>
			<stop stop-color="#1f1f1f" offset=".7324"/>
			<stop offset="1"/>
		</linearGradient>
		<path opacity=".625" fill="url(#path8166_1_)" d="m42.517 76.218c-18.614 0-33.702-15.091-33.702-33.703 0-18.615 15.089-33.705 33.702-33.705 18.614 0 33.706 15.09 33.706 33.705 0 18.612-15.092 33.703-33.706 33.703zm0.001-75.196c-22.899 0-41.496 18.597-41.496 41.496 0 22.897 18.598 41.494 41.496 41.494 22.897 0 41.494-18.597 41.494-41.494 0-22.899-18.596-41.496-41.494-41.496z"/>
			<linearGradient id="path8179_1_" y2="-226.14" gradientUnits="userSpaceOnUse" x2="295.82" gradientTransform="matrix(1.0109 0 0 -1.0109 -239.37 -89.676)" y1="-83.789" x1="270.5">
			<stop stop-color="#4d4d4d" offset="0"/>
			<stop stop-color="#474747" offset=".20470"/>
			<stop stop-color="#383838" offset=".45680"/>
			<stop stop-color="#1f1f1f" offset=".7324"/>
			<stop offset="1"/>
		</linearGradient>
		<path fill="url(#path8179_1_)" d="m42.517 76.218c-18.614 0-33.702-15.091-33.702-33.703 0-18.615 15.089-33.705 33.702-33.705s33.706 15.09 33.706 33.704c0 18.613-15.092 33.704-33.706 33.704zm0-74.182c-22.353 0-40.475 18.121-40.475 40.476 0 22.353 18.122 40.474 40.475 40.474s40.475-18.121 40.475-40.474c0-22.354-18.121-40.476-40.475-40.476z"/>
		<linearGradient id="path8200_1_" y2="-211.08" gradientUnits="userSpaceOnUse" x2="278.86" gradientTransform="matrix(1.0109 0 0 -1.0109 -239.37 -89.676)" y1="-88.42" x1="278.86">
		<stop stop-color="#696969" offset="0"/>
		<stop stop-color="#6e6e6e" offset=".1198"/>
		<stop stop-color="#7a7a7a" offset=".2472"/>
		<stop stop-color="#fff" offset=".47750"/>
		<stop stop-color="#ededed" offset="0.573"/>
		<stop stop-color="#383838" offset=".6067"/>
		<stop stop-color="#141414" offset=".64610"/>
		<stop stop-color="#828282" offset=".73030"/>
		<stop offset=".8933"/>
	</linearGradient>
	<path fill="url(#path8200_1_)" d="m42.517 2.662c-22.009 0-39.851 17.843-39.851 39.853 0 22.009 17.842 39.852 39.851 39.852 22.012 0 39.854-17.843 39.854-39.852 0-22.013-17.845-39.856-39.856-39.856l0.002 0.003zm0 73.556c-18.614 0-33.702-15.091-33.702-33.703 0-18.615 15.089-33.705 33.702-33.705s33.706 15.09 33.706 33.704c0 18.613-15.092 33.704-33.706 33.704z"/>
	<path fill="#fff" d="m42.517 8.811c-18.614 0-33.702 15.09-33.702 33.704 0 18.612 15.089 33.704 33.702 33.704s33.706-15.092 33.706-33.704c0-18.614-15.092-33.704-33.706-33.704zm0 66.551c-18.14 0-32.846-14.707-32.846-32.846 0-18.142 14.707-32.847 32.846-32.847 18.141 0 32.848 14.706 32.848 32.847s-14.707 32.846-32.848 32.846z"/>
		<linearGradient id="path8215_1_" y2="-189.24" gradientUnits="userSpaceOnUse" x2="250.39" gradientTransform="matrix(1.0109 0 0 -1.0109 -239.37 -89.676)" y1="-99.193" x1="294.23">
		<stop stop-color="#666" offset=".0056"/>
		<stop stop-color="#d1d1d1" offset=".18540"/>
		<stop stop-color="#e3e3e3" offset=".24160"/>
		<stop stop-color="#fff" offset=".43260"/>
		<stop stop-color="#1a1a1a" offset=".80340"/>
	</linearGradient>
	<path fill="url(#path8215_1_)" d="m42.517 9.434c-18.269 0-33.08 14.811-33.08 33.081 0 18.269 14.81 33.08 33.08 33.08 18.271 0 33.081-14.811 33.081-33.08 0-18.27-14.81-33.081-33.081-33.081zm0 63.904c-17.022 0-30.823-13.799-30.823-30.822 0-17.024 13.8-30.824 30.823-30.824 17.024 0 30.823 13.8 30.823 30.824 0 17.022-13.799 30.822-30.823 30.822z"/>
		<linearGradient id="path8222_1_" y2="-84.272" gradientUnits="userSpaceOnUse" x2="278.99" gradientTransform="matrix(1.0109 0 0 -1.0109 -239.37 -89.676)" y1="-132.76" x1="278.99">
		<stop stop-color="#525252" offset="0.427"/>
		<stop stop-color="#0d0d0d" offset=".77530"/>
	</linearGradient>
	<path fill="url(#path8222_1_)" d="m11.589 35.318c0.975 0.163 0.463 3.096 0.887 1.056 2.915-13.993 15.317-24.505 30.175-24.505 15.878 0 28.952 12.006 30.64 27.434 0.121 1.113-0.243-1.913 0.826-2.139 1.67-0.352 1.616 6.438 1.616 5.529 0-18.271-14.811-33.08-33.082-33.08s-33.081 14.81-33.081 33.081c0 1.403 0.492-7.63 2.019-7.376z"/>
		<linearGradient id="path8233_1_" y2="-130.77" gradientUnits="userSpaceOnUse" x2="334.03" gradientTransform="matrix(1.0109 0 0 -1.0109 -239.37 -89.676)" y1="-130.77" x1="248.36">
		<stop stop-color="#666" offset=".0056"/>
		<stop stop-color="#d1d1d1" offset=".30340"/>
		<stop stop-color="#fff" offset=".46630"/>
		<stop stop-color="#1a1a1a" offset=".80340"/>
	</linearGradient>
	<path opacity="0.54" fill="url(#path8233_1_)" d="m42.517 11.692c-17.022 0-30.823 13.8-30.823 30.824 0 17.023 13.8 30.822 30.823 30.822 17.024 0 30.823-13.799 30.823-30.822 0-17.024-13.799-30.824-30.823-30.824zm0 61.18c-16.764 0-30.356-13.591-30.356-30.356 0-16.766 13.592-30.358 30.356-30.358 16.767 0 30.358 13.592 30.358 30.358 0 16.765-13.591 30.356-30.358 30.356z"/>
</g>
<path id="bgColor00" fill="#7f7c7c" d="m59.727 102.37c-23.55 0-42.645-19.094-42.645-42.646 0-23.554 19.094-42.647 42.645-42.647 23.555 0 42.646 19.094 42.646 42.647 0.001 23.552-19.091 42.646-42.646 42.646z"/>
</svg>
