<?xml version="1.0" encoding="UTF-8" standalone="no"?>
<!DOCTYPE svg  PUBLIC '-//W3C//DTD SVG 1.1//EN'  'http://www.w3.org/Graphics/SVG/1.1/DTD/svg11.dtd'>
<svg xmlns="http://www.w3.org/2000/svg" xml:space="preserve" height="600px" viewBox="0 0 600 600" width="600px" version="1.1" y="0px" x="0px" xmlns:xlink="http://www.w3.org/1999/xlink" enable-background="new 0 0 600 600">
<linearGradient id="path8153_1_" y2="21.039" gradientUnits="userSpaceOnUse" x2="334.57" gradientTransform="matrix(7.133 0 0 -7.1331 -1959.4 1164.6)" y1="170.56" x1="307.98">
	<stop stop-color="#4D4D4D" offset="0"/>
	<stop stop-color="#474747" offset=".2047"/>
	<stop stop-color="#383838" offset=".4568"/>
	<stop stop-color="#1F1F1F" offset=".7324"/>
	<stop offset="1"/>
</linearGradient>
<path opacity=".25" d="m299.99 592.23c-161.39 0-292.22-130.84-292.22-292.23 0-161.4 130.83-292.24 292.22-292.24s292.24 130.84 292.24 292.24c0.01 161.39-130.85 292.23-292.24 292.23zm0.02-592.23c-165.42 0-300.01 134.58-300.01 300s134.59 300 300.01 300c165.42 0 300-134.58 300-300 0-165.4-134.6-299.98-300.02-299.98l0.02-0.02z" enable-background="new    " fill="url(#path8153_1_)"/>
<linearGradient id="path8166_1_" y2="23.438" gradientUnits="userSpaceOnUse" x2="334.14" gradientTransform="matrix(7.133 0 0 -7.1331 -1959.4 1164.6)" y1="169.37" x1="308.19">
	<stop stop-color="#4D4D4D" offset="0"/>
	<stop stop-color="#474747" offset=".2047"/>
	<stop stop-color="#383838" offset=".4568"/>
	<stop stop-color="#1F1F1F" offset=".7324"/>
	<stop offset="1"/>
</linearGradient>
<path opacity=".625" d="m299.99 585.03c-157.41 0-285.01-127.62-285.01-285.03 0-157.42 127.61-285.04 285.01-285.04 157.41 0 285.04 127.62 285.04 285.04 0 157.41-127.63 285.03-285.04 285.03zm0.01-577.82c-161.58 0-292.81 131.23-292.81 292.81 0 161.57 131.23 292.8 292.81 292.8 161.57 0 292.8-131.23 292.8-292.8 0-161.58-131.23-292.81-292.8-292.81z" enable-background="new    " fill="url(#path8166_1_)"/>
<linearGradient id="path8179_1_" y2="25.834" gradientUnits="userSpaceOnUse" x2="333.71" gradientTransform="matrix(7.133 0 0 -7.1331 -1959.4 1164.6)" y1="168.19" x1="308.4">
	<stop stop-color="#4D4D4D" offset="0"/>
	<stop stop-color="#474747" offset=".2047"/>
	<stop stop-color="#383838" offset=".4568"/>
	<stop stop-color="#1F1F1F" offset=".7324"/>
	<stop offset="1"/>
</linearGradient>
<path d="m299.99 581.22c-154.79 0-281.2-126.42-281.2-281.21 0-154.81 126.39-281.24 281.18-281.24s281.24 126.44 281.24 281.24c0 154.78-126.43 281.21-281.22 281.21zm0-566.85c-157.73 0-285.6 127.87-285.6 285.61 0 157.73 127.88 285.6 285.6 285.6s285.6-127.87 285.6-285.6c0.01-157.74-127.86-285.61-285.6-285.61z" fill="url(#path8179_1_)"/>
<radialGradient id="path8200_1_" gradientUnits="userSpaceOnUse" cy="121.22" cx="316.76" gradientTransform="matrix(7.133 0 0 -7.1331 -1959.4 1164.6)" r="39.931">
	<stop stop-color="#C8C8C8" stop-opacity="0" offset=".9502"/>
	<stop stop-color="#C8C8C8" offset="1"/>
</radialGradient>
<path d="m299.99 18.787c-155.3 0-281.2 125.9-281.2 281.22 0 155.3 125.9 281.21 281.2 281.21 155.32 0 281.22-125.9 281.22-281.21 0-155.34-125.92-281.24-281.24-281.24l0.02 0.017zm0.51 543c-143.77 0-260.82-118.03-260.82-261.8 0-143.78 116.7-261.42 260.46-261.42s261.68 117.84 261.68 261.61c0 143.76-118.07 260.14-261.84 260.14l0.52 1.47z" fill="url(#path8200_1_)"/>
<radialGradient id="path8215_1_" gradientUnits="userSpaceOnUse" cy="121.19" cx="316.83" gradientTransform="matrix(7.133 0 0 -7.1331 -1959.4 1164.6)" r="36.591">
	<stop stop-color="#C8C8C8" stop-opacity="0" offset=".9731"/>
	<stop stop-color="#C8C8C8" offset="1"/>
</radialGradient>
<path d="m300.5 40.573c-143.83 0-259.32 115.77-259.32 259.61 0 143.83 115.49 259.61 259.32 259.61 143.84 0 259.32-115.78 259.32-259.61 0-143.84-115.48-259.61-259.32-259.61v0.003zm-0.51 511.09c-138.98 0-251.65-112.67-251.65-251.65 0-138.99 112.67-251.66 251.65-251.66 138.99 0 251.66 112.67 251.66 251.66 0 138.98-112.67 251.65-251.66 251.65z" fill="url(#path8215_1_)"/>
<path opacity=".5" d="m299.99 48.501c-138.89 0-251.49 112.6-251.49 251.51 0 138.89 112.6 251.5 251.49 251.5 138.9 0 251.5-112.6 251.5-251.5 0.01-138.91-112.59-251.51-251.5-251.51zm0 499.2c-136.78 0-247.69-110.9-247.69-247.69 0-136.8 110.9-247.7 247.69-247.7 136.81 0 247.7 110.9 247.7 247.7s-110.89 247.69-247.7 247.69z" enable-background="new    " fill="#fff"/>
	<path opacity=".5" d="m300.5 561.79c-69.802 0-135.42-27.212-184.78-76.624-49.357-49.411-76.539-115.11-76.539-184.99 0-69.878 27.182-135.57 76.539-184.98 49.357-49.412 114.98-76.624 184.78-76.624 69.803 0 135.43 27.212 184.78 76.624 49.354 49.411 76.539 115.11 76.539 184.98 0 69.878-27.185 135.58-76.539 184.99-49.35 49.41-114.98 76.62-184.78 76.62zm0-521.22c-142.99 0-259.32 116.46-259.32 259.61s116.33 259.61 259.32 259.61c142.99 0 259.32-116.46 259.32-259.61s-116.33-259.61-259.32-259.61z" enable-background="new    " fill="#fff"/>
<path id="bgColor00" d="m299.71 550.82c-138.42 0-250.65-112.22-250.65-250.65 0-138.44 112.23-250.66 250.65-250.66 138.44 0 250.66 112.22 250.66 250.66 0.01 138.43-112.21 250.65-250.66 250.65" fill="#646464"/>
</svg>
