<?xml version="1.0" encoding="UTF-8" standalone="no"?>
<!DOCTYPE svg  PUBLIC '-//W3C//DTD SVG 1.1//EN'  'http://www.w3.org/Graphics/SVG/1.1/DTD/svg11.dtd'>
<svg xmlns="http://www.w3.org/2000/svg" xml:space="preserve" height="600px" viewBox="0 0 600 600" width="600px" version="1.1" y="0px" x="0px" xmlns:xlink="http://www.w3.org/1999/xlink" enable-background="new 0 0 600 600">
<g transform="scale(1.4048)">
			<linearGradient id="path8153_1_" y2="150.03" gradientUnits="userSpaceOnUse" x2="373.81" gradientTransform="matrix(10.02 0 0 -10.021 -3310.3 2964.6)" y1="299.54" x1="347.22">
			<stop stop-color="#4D4D4D" offset="0"/>
			<stop stop-color="#474747" offset=".2047"/>
			<stop stop-color="#383838" offset=".4568"/>
			<stop stop-color="#1F1F1F" offset=".7324"/>
			<stop offset="1"/>
		</linearGradient>
		<path opacity=".25" d="m213.55 398.5c-102.14 0-184.95-82.81-184.95-184.95 0-102.15 82.803-184.96 184.95-184.96 102.14 0 184.96 82.811 184.96 184.96 0 102.14-82.82 184.95-184.96 184.95zm0.01-398.5c-117.76 0-213.56 95.801-213.56 213.55s95.805 213.55 213.56 213.55c117.75 0 213.55-95.798 213.55-213.55 0-117.73-95.812-213.54-213.56-213.54l0.01-0.01z" enable-background="new    " fill="url(#path8153_1_)"/>
			<linearGradient id="path8166_1_" y2="153.01" gradientUnits="userSpaceOnUse" x2="373.28" gradientTransform="matrix(10.02 0 0 -10.021 -3310.3 2964.6)" y1="298.94" x1="347.33">
			<stop stop-color="#4D4D4D" offset="0"/>
			<stop stop-color="#474747" offset=".2047"/>
			<stop stop-color="#383838" offset=".4568"/>
			<stop stop-color="#1F1F1F" offset=".7324"/>
			<stop offset="1"/>
		</linearGradient>
		<path opacity=".625" d="m213.54 398.5c-102.14 0-184.94-82.814-184.94-184.95 0-102.15 82.803-184.96 184.94-184.96s184.96 82.811 184.96 184.96c0.01 102.14-82.81 184.95-184.96 184.95zm0.01-393.37c-115.02 0-208.43 93.412-208.43 208.44 0 115.01 93.416 208.42 208.44 208.42 115.01 0 208.42-93.412 208.42-208.42 0-115.02-93.42-208.44-208.43-208.44v0.003z" enable-background="new    " fill="url(#path8166_1_)"/>
			<linearGradient id="path8179_1_" y2="155.99" gradientUnits="userSpaceOnUse" x2="372.75" gradientTransform="matrix(10.02 0 0 -10.021 -3310.3 2964.6)" y1="298.34" x1="347.44">
			<stop stop-color="#4D4D4D" offset="0"/>
			<stop stop-color="#474747" offset=".2047"/>
			<stop stop-color="#383838" offset=".4568"/>
			<stop stop-color="#1F1F1F" offset=".7324"/>
			<stop offset="1"/>
		</linearGradient>
		<path d="m213.54 399.22c-102.54 0-185.66-83.133-185.66-185.67s83.121-185.67 185.66-185.67 185.68 83.13 185.68 185.67c0 102.53-83.14 185.67-185.68 185.67zm0.01-388.99c-112.28 0-203.31 91.023-203.31 203.31 0 112.28 91.027 203.3 203.31 203.3s203.31-91.023 203.31-203.3c-0.01-112.29-91.03-203.31-203.31-203.31v-0.001z" fill="url(#path8179_1_)"/>
		<linearGradient id="path8200_1_" y2="215.56" gradientUnits="userSpaceOnUse" x2="351.67" gradientTransform="matrix(10.02 0 0 -10.021 -3310.3 2964.6)" y1="294.62" x1="351.67">
		<stop stop-color="#fff" offset="0"/>
		<stop stop-color="#EDEDED" offset=".2061"/>
		<stop stop-color="#828282" offset=".5576"/>
		<stop offset="1"/>
	</linearGradient>
	<path d="m213.55 13.373c-110.55 0-200.17 89.624-200.17 200.18 0 110.55 89.621 200.18 200.17 200.18 110.57 0 200.19-89.624 200.19-200.18 0-110.57-89.635-200.2-200.2-200.2l0.01 0.023zm-0.01 385.49c-102.34 0-185.3-82.973-185.3-185.31 0-102.35 82.962-185.31 185.3-185.31s185.32 82.97 185.32 185.31c0 102.34-82.98 185.31-185.32 185.31z" fill="url(#path8200_1_)"/>
		<linearGradient id="path8215_1_" y2="220.68" gradientUnits="userSpaceOnUse" x2="325.64" gradientTransform="matrix(10.02 0 0 -10.021 -3310.3 2964.6)" y1="292.41" x1="360.31">
		<stop stop-color="#666" offset=".0056"/>
		<stop stop-color="#D1D1D1" offset=".1854"/>
		<stop stop-color="#E3E3E3" offset=".2416"/>
		<stop stop-color="#fff" offset=".4326"/>
		<stop stop-color="#1A1A1A" offset=".8034"/>
	</linearGradient>
	<path d="m213.54 28.17c-102.38 0-185.38 82.997-185.38 185.39 0 102.38 82.998 185.38 185.38 185.38 102.39 0 185.39-82.997 185.39-185.38 0-102.39-82.99-185.39-185.39-185.39zm0 364.52c-98.932 0-179.14-80.205-179.14-179.14 0-98.94 80.204-179.14 179.14-179.14 98.941 0 179.14 80.204 179.14 179.14 0.01 98.94-80.19 179.14-179.14 179.14z" fill="url(#path8215_1_)"/>
		<linearGradient id="path8233_1_" y2="51.76" gradientUnits="userSpaceOnUse" x2="720.91" gradientTransform="matrix(1.4048 0 0 -1.4048 -275.56 308.39)" y1="72.825" x1="222.38">
		<stop stop-color="#666" offset=".0056"/>
		<stop stop-color="#D1D1D1" offset=".3034"/>
		<stop stop-color="#fff" offset=".4663"/>
		<stop stop-color="#1A1A1A" offset=".8034"/>
	</linearGradient>
	<path opacity=".54" d="m213.54 33.974c-99.174 0-179.57 80.401-179.57 179.58 0 99.172 80.401 179.58 179.57 179.58 99.182 0 179.58-80.402 179.58-179.58 0.01-99.17-80.39-179.58-179.58-179.58zm0 357.4c-98.197 0-177.81-79.609-177.81-177.81 0-98.21 79.616-177.82 177.81-177.82 98.214 0 177.82 79.612 177.82 177.82 0.01 98.2-79.6 177.81-177.82 177.81z" enable-background="new    " fill="url(#path8233_1_)"/>
</g>
<linearGradient id="path4822_1_" y2="172.76" gradientUnits="userSpaceOnUse" x2="851.13" gradientTransform="translate(-550.98 -235.93)" y1="514.52" x1="851.13">
	<stop stop-color="#525252" offset=".427"/>
	<stop stop-color="#0D0D0D" offset=".7753"/>
</linearGradient>
<path d="m300.14 47.344c130.24 0 237.37 98.933 250.34 225.75 0 0 0.339-10.103 3.488-10.208 4.088-0.137 5.32 10.208 5.32 10.208-13.008-131.67-124.06-234.52-259.15-234.52-135.08 0.003-246.13 102.85-259.14 234.52 0 0 2.119-14.745 6.45-13.677 3.984 0.982 2.358 13.677 2.358 13.677 12.974-126.81 120.1-225.75 250.33-225.75z" fill="url(#path4822_1_)"/>
<path d="m300.5 561.79c-69.802 0-135.42-27.212-184.78-76.624-49.357-49.411-76.539-115.11-76.539-184.99 0-69.878 27.182-135.57 76.539-184.98 49.357-49.412 114.98-76.624 184.78-76.624 69.803 0 135.43 27.212 184.78 76.624 49.354 49.411 76.539 115.11 76.539 184.98 0 69.878-27.185 135.58-76.539 184.99-49.35 49.41-114.98 76.62-184.78 76.62zm0-521.22c-142.99 0-259.32 116.46-259.32 259.61s116.33 259.61 259.32 259.61c142.99 0 259.32-116.46 259.32-259.61s-116.33-259.61-259.32-259.61z" fill="#fff"/>
<path id="bgColor00" d="m299.71 550.82c-138.42 0-250.65-112.22-250.65-250.65 0-138.44 112.23-250.66 250.65-250.66 138.44 0 250.66 112.22 250.66 250.66 0.01 138.43-112.21 250.65-250.66 250.65" fill="#646464"/>
</svg>
