<?xml version="1.0" encoding="UTF-8" standalone="no"?>
<svg xmlns:rdf="http://www.w3.org/1999/02/22-rdf-syntax-ns#" xmlns="http://www.w3.org/2000/svg" xml:space="preserve" height="41.328px" viewBox="0 0 43.121 41.328" width="43.121px" version="1.1" enable-background="new 0 0 43.121 41.328" y="0px" x="0px" xmlns:cc="http://creativecommons.org/ns#" xmlns:dc="http://purl.org/dc/elements/1.1/">
<path id="bgColor00" d="m0 17.105v-5.887c0-6.195 5.023-11.218 11.215-11.218 6.199 0 11.219 5.023 11.219 11.219v5.887h-5.059v-7.122c0-2.906-2.645-5.262-5.906-5.262-3.258 0-5.902 2.355-5.902 5.262v7.121h-5.567zm43.121 0.317v9.316c0 8.059-6.535 14.59-14.59 14.59-8.059 0-14.594-6.531-14.594-14.59v-9.316h29.184zm-11.555 8.808c0-1.676-1.359-3.035-3.035-3.035s-3.039 1.359-3.039 3.035c0 0.895 0.395 1.691 1.012 2.25v7.367h3.797v-7.16c0.762-0.55 1.265-1.441 1.265-2.457z"/>
</svg>
