<?xml version="1.0" encoding="UTF-8" standalone="no"?>
<!-- Generator: Adobe Illustrator 13.0.0, SVG Export Plug-In . SVG Version: 6.00 Build 14948)  -->
<svg
   xmlns:dc="http://purl.org/dc/elements/1.1/"
   xmlns:cc="http://creativecommons.org/ns#"
   xmlns:rdf="http://www.w3.org/1999/02/22-rdf-syntax-ns#"
   xmlns:svg="http://www.w3.org/2000/svg"
   xmlns="http://www.w3.org/2000/svg"
   xmlns:xlink="http://www.w3.org/1999/xlink"
   xmlns:sodipodi="http://sodipodi.sourceforge.net/DTD/sodipodi-0.dtd"
   xmlns:inkscape="http://www.inkscape.org/namespaces/inkscape"
   version="1.1"
   id="Livello_1"
   x="0px"
   y="0px"
   width="52.262px"
   height="52.32px"
   viewBox="0 0 52.262 52.32"
   enable-background="new 0 0 52.262 52.32"
   xml:space="preserve"
   sodipodi:version="0.32"
   inkscape:version="0.46"
   sodipodi:docname="IC_di2_028.svg"
   inkscape:output_extension="org.inkscape.output.svg.inkscape"><metadata
   id="metadata3860"><rdf:RDF><cc:Work
       rdf:about=""><dc:format>image/svg+xml</dc:format><dc:type
         rdf:resource="http://purl.org/dc/dcmitype/StillImage" /></cc:Work></rdf:RDF></metadata><defs
   id="defs3858"><linearGradient
     inkscape:collect="always"
     id="linearGradient4375"><stop
       style="stop-color:#000000;stop-opacity:1;"
       offset="0"
       id="stop4377" /><stop
       style="stop-color:#000000;stop-opacity:0;"
       offset="1"
       id="stop4379" /></linearGradient><inkscape:perspective
     sodipodi:type="inkscape:persp3d"
     inkscape:vp_x="0 : 26.16 : 1"
     inkscape:vp_y="0 : 1000 : 0"
     inkscape:vp_z="52.262001 : 26.16 : 1"
     inkscape:persp3d-origin="26.131001 : 17.44 : 1"
     id="perspective3862" /><linearGradient
     inkscape:collect="always"
     xlink:href="#linearGradient4375"
     id="linearGradient4381"
     x1="24.78371"
     y1="39.348099"
     x2="24.833811"
     y2="10.48562"
     gradientUnits="userSpaceOnUse"
     gradientTransform="translate(-0.245197,12.971901)" /></defs><sodipodi:namedview
   inkscape:window-height="964"
   inkscape:window-width="1280"
   inkscape:pageshadow="2"
   inkscape:pageopacity="0.0"
   guidetolerance="10.0"
   gridtolerance="10.0"
   objecttolerance="10.0"
   borderopacity="1.0"
   bordercolor="#666666"
   pagecolor="#ffffff"
   id="base"
   showgrid="false"
   inkscape:zoom="9.2507646"
   inkscape:cx="9.1053808"
   inkscape:cy="26.16"
   inkscape:window-x="-4"
   inkscape:window-y="-4"
   inkscape:current-layer="Livello_1" />
<path
   d="M0.43,3.082l48.781,48.777l2.621-2.621L3.051,0.461L0.43,3.082z M52.262,7.074L45.184,0l-6.016,6.02l7.074,7.074  L52.262,7.074z M33.098,26.242l9.949-9.949l-3.199-3.195l-9.945,9.945L33.098,26.242z M16.852,36.094l-1.918-1.922l6.164-6.16  l-1.961-1.961L5.75,39.438l0.02,0.02L0,52.32l12.805-5.828l0.02,0.02l0.059-0.059l13.328-13.328l-3.195-3.195L16.852,36.094z   M12.125,43.203l-5.586,2.543l2.52-5.609l2.816-2.816l0.407,2.688l2.659,0.379L12.125,43.203z M37.93,11.176l-1.961-1.961  l-9.949,9.949l1.961,1.961L37.93,11.176z"
   id="bgColor00"
   inkscape:label="#iconcolor"
   style="fill:#ff0000" />
<path
   d="M 0.43,3.082001 L 49.211001,51.859 L 51.832001,49.238 L 3.051,0.461 L 0.43,3.082001 z M 52.262001,7.0740005 L 45.184001,3.5527137e-15 L 39.168001,6.0200005 L 46.242001,13.094 L 52.262001,7.0740005 z M 33.098,26.242 L 43.047001,16.293001 L 39.848001,13.098 L 29.903,23.043 L 33.098,26.242 z M 16.852,36.094 L 14.934,34.172 L 21.098,28.012 L 19.137,26.051 L 5.75,39.438 L 5.77,39.458 L 0,52.32 L 12.805,46.492 L 12.825,46.512 L 12.884,46.453 L 26.212,33.125 L 23.017,29.93 L 16.852,36.094 z M 12.125,43.203 L 6.539,45.746 L 9.059,40.137 L 11.875,37.321 L 12.282,40.009 L 14.941,40.388 L 12.125,43.203 z M 37.93,11.176001 L 35.969,9.2150005 L 26.02,19.164001 L 27.981,21.125001 L 37.93,11.176001 z"
   id="path3864"
   inkscape:label="#iconcolor"
   style="opacity:0.5;fill:url(#linearGradient4381);fill-opacity:1" /></svg>