<?xml version="1.0" encoding="UTF-8" standalone="no"?>
<!-- Generator: Adobe Illustrator 13.0.0, SVG Export Plug-In . SVG Version: 6.00 Build 14948)  -->
<svg
   xmlns:dc="http://purl.org/dc/elements/1.1/"
   xmlns:cc="http://creativecommons.org/ns#"
   xmlns:rdf="http://www.w3.org/1999/02/22-rdf-syntax-ns#"
   xmlns:svg="http://www.w3.org/2000/svg"
   xmlns="http://www.w3.org/2000/svg"
   xmlns:xlink="http://www.w3.org/1999/xlink"
   xmlns:sodipodi="http://sodipodi.sourceforge.net/DTD/sodipodi-0.dtd"
   xmlns:inkscape="http://www.inkscape.org/namespaces/inkscape"
   version="1.1"
   id="Livello_1"
   x="0px"
   y="0px"
   width="52.262px"
   height="52.32px"
   viewBox="0 0 52.262 52.32"
   enable-background="new 0 0 52.262 52.32"
   xml:space="preserve"
   inkscape:version="0.46"
   sodipodi:docname="IC_di2_027.svg"
   sodipodi:version="0.32"
   inkscape:output_extension="org.inkscape.output.svg.inkscape"><metadata
   id="metadata4199"><rdf:RDF><cc:Work
       rdf:about=""><dc:format>image/svg+xml</dc:format><dc:type
         rdf:resource="http://purl.org/dc/dcmitype/StillImage" /></cc:Work></rdf:RDF></metadata><defs
   id="defs4197"><linearGradient
     inkscape:collect="always"
     id="linearGradient3790"><stop
       style="stop-color:#000000;stop-opacity:1;"
       offset="0"
       id="stop3792" /><stop
       style="stop-color:#000000;stop-opacity:0;"
       offset="1"
       id="stop3794" /></linearGradient><inkscape:perspective
     sodipodi:type="inkscape:persp3d"
     inkscape:vp_x="0 : 26.16 : 1"
     inkscape:vp_y="0 : 1000 : 0"
     inkscape:vp_z="52.262001 : 26.16 : 1"
     inkscape:persp3d-origin="26.131001 : 17.44 : 1"
     id="perspective4201" /><linearGradient
     inkscape:collect="always"
     xlink:href="#linearGradient3790"
     id="linearGradient3796"
     x1="28.297588"
     y1="52.32"
     x2="27.628849"
     y2="24.734941"
     gradientUnits="userSpaceOnUse" /></defs><sodipodi:namedview
   pagecolor="#ffffff"
   bordercolor="#666666"
   borderopacity="1"
   objecttolerance="10"
   gridtolerance="10"
   guidetolerance="10"
   inkscape:pageopacity="0"
   inkscape:pageshadow="2"
   inkscape:window-width="1280"
   inkscape:window-height="964"
   id="namedview4195"
   showgrid="false"
   inkscape:zoom="4.9120795"
   inkscape:cx="-5.9328123"
   inkscape:cy="26.16"
   inkscape:window-x="-4"
   inkscape:window-y="-4"
   inkscape:window-maximized="1"
   inkscape:current-layer="Livello_1" />
<path
   d="M46.242,13.094L39.168,6.02L45.184,0l7.078,7.074L46.242,13.094z M26.031,33.309l-0.002-0.002L12.824,46.512l-0.02-0.02  L0,52.32l5.77-12.863l-0.02-0.02l13.205-13.205l-0.002-0.002L35.969,9.215l1.961,1.961L21.096,28.01l0.002,0.002l-6.164,6.16  l1.918,1.922l22.996-22.996l3.199,3.195L26.031,33.309z M14.941,40.387l-2.659-0.379l-0.407-2.688l-2.816,2.816l-2.52,5.609  l5.586-2.543L14.941,40.387z"
   id="bgColor00"
   style="fill:#ff0000"
   inkscape:label="#iconcolor" />
<path
   d="M 46.242,13.094 L 39.168,6.0199998 L 45.184,-1.5258789e-07 L 52.262,7.0739998 L 46.242,13.094 z M 26.031,33.309 L 26.029,33.307 L 12.824,46.512 L 12.804,46.492 L 4.8120117e-07,52.32 L 5.7700005,39.457 L 5.7500005,39.437 L 18.955,26.232 L 18.953,26.23 L 35.969,9.2149998 L 37.93,11.176 L 21.096,28.01 L 21.098,28.012 L 14.934,34.172 L 16.852,36.094 L 39.848,13.098 L 43.047,16.293 L 26.031,33.309 z M 14.941,40.387 L 12.282,40.008 L 11.875,37.32 L 9.0590005,40.136 L 6.5390005,45.745 L 12.125,43.202 L 14.941,40.387 z"
   id="path3279"
   style="fill:url(#linearGradient3796);opacity:0.50000000000000000;fill-opacity:1"
   inkscape:label="#iconcolor" /></svg>