<?xml version="1.0" encoding="UTF-8" standalone="no"?>
<!-- Generator: Adobe Illustrator 12.0.0, SVG Export Plug-In . SVG Version: 6.00 Build 51448)  -->

<svg
   xmlns:dc="http://purl.org/dc/elements/1.1/"
   xmlns:cc="http://creativecommons.org/ns#"
   xmlns:rdf="http://www.w3.org/1999/02/22-rdf-syntax-ns#"
   xmlns:svg="http://www.w3.org/2000/svg"
   xmlns="http://www.w3.org/2000/svg"
   xmlns:xlink="http://www.w3.org/1999/xlink"
   xmlns:sodipodi="http://sodipodi.sourceforge.net/DTD/sodipodi-0.dtd"
   xmlns:inkscape="http://www.inkscape.org/namespaces/inkscape"
   version="1.1"
   id="Livello_1"
   width="43"
   height="43"
   viewBox="0 0 43 43"
   overflow="visible"
   enable-background="new 0 0 43 43"
   xml:space="preserve"
   inkscape:version="0.47pre2 r22153"
   sodipodi:docname="IC_pl1_052.svg"><metadata
   id="metadata10973"><rdf:RDF><cc:Work
       rdf:about=""><dc:format>image/svg+xml</dc:format><dc:type
         rdf:resource="http://purl.org/dc/dcmitype/StillImage" /><dc:title></dc:title></cc:Work></rdf:RDF></metadata><defs
   id="defs10971"><linearGradient
     inkscape:collect="always"
     id="linearGradient11509"><stop
       style="stop-color:#000000;stop-opacity:1;"
       offset="0"
       id="stop11511" /><stop
       style="stop-color:#000000;stop-opacity:0;"
       offset="1"
       id="stop11513" /></linearGradient><inkscape:perspective
     sodipodi:type="inkscape:persp3d"
     inkscape:vp_x="0 : 21.5 : 1"
     inkscape:vp_y="0 : 1000 : 0"
     inkscape:vp_z="43 : 21.5 : 1"
     inkscape:persp3d-origin="21.5 : 14.333333 : 1"
     id="perspective10975" /><inkscape:perspective
     id="perspective10985"
     inkscape:persp3d-origin="0.5 : 0.33333333 : 1"
     inkscape:vp_z="1 : 0.5 : 1"
     inkscape:vp_y="0 : 1000 : 0"
     inkscape:vp_x="0 : 0.5 : 1"
     sodipodi:type="inkscape:persp3d" /><linearGradient
     inkscape:collect="always"
     xlink:href="#linearGradient11509"
     id="linearGradient11515"
     x1="31.521187"
     y1="-9.474576"
     x2="31.521187"
     y2="-30.974577"
     gradientUnits="userSpaceOnUse"
     gradientTransform="translate(-10.021186,52.474576)" /></defs><sodipodi:namedview
   pagecolor="#ffffff"
   bordercolor="#666666"
   borderopacity="1"
   objecttolerance="10"
   gridtolerance="10"
   guidetolerance="10"
   inkscape:pageopacity="0"
   inkscape:pageshadow="2"
   inkscape:window-width="1600"
   inkscape:window-height="1144"
   id="namedview10969"
   showgrid="false"
   inkscape:zoom="5.4883721"
   inkscape:cx="-7.1970339"
   inkscape:cy="21.5"
   inkscape:window-x="-4"
   inkscape:window-y="-4"
   inkscape:window-maximized="1"
   inkscape:current-layer="Livello_1" />
<path
   d="M21.5,0C9.644,0,0,9.646,0,21.498C0,33.354,9.644,43,21.5,43S43,33.354,43,21.498C43,9.646,33.356,0,21.5,0z M21.5,4.729  c8.334,0,15.263,6.108,16.552,14.087l-14.188,7.28V9.179L4.936,18.876C6.197,10.87,13.146,4.729,21.5,4.729z M21.5,38.271  c-8.334,0-15.263-6.112-16.554-14.087l14.189-7.269v16.927l18.927-9.718C36.799,32.13,29.854,38.271,21.5,38.271z"
   id="bgColor00"
   style="fill:#ff0000"
   inkscape:label="#iconcolor" />
<path
   d="M 21.5,3e-7 C 9.644,3e-7 0,9.6460003 0,21.498 0,33.354 9.644,43 21.5,43 33.356,43 43,33.354 43,21.498 43,9.6460003 33.356,3e-7 21.5,3e-7 z m 0,4.729 c 8.334,0 15.263,6.1079997 16.552,14.0869997 l -14.188,7.28 V 9.1790003 L 4.936,18.876 C 6.197,10.87 13.146,4.7290003 21.5,4.7290003 z M 21.5,38.271 C 13.166,38.271 6.237,32.159 4.946,24.184 L 19.135,16.915 V 33.842 L 38.062,24.124 C 36.799,32.13 29.854,38.271 21.5,38.271 z"
   id="path10967-5"
   style="opacity:0.45;fill:url(#linearGradient11515);fill-opacity:1"
   inkscape:label="#iconcolor" /></svg>