<?xml version="1.0" encoding="utf-8"?>
<!-- Generator: Adobe Illustrator 16.0.0, SVG Export Plug-In . SVG Version: 6.00 Build 0)  -->
<svg version="1.2" baseProfile="tiny" id="Layer_2" xmlns="http://www.w3.org/2000/svg" xmlns:xlink="http://www.w3.org/1999/xlink"
	 x="0px" y="0px" width="1468px" height="662px" viewBox="0 0 1468 662" xml:space="preserve">
<g>
	<circle fill="#FDBB30" cx="744.264" cy="205.227" r="145.739"/>
	<circle fill="none" stroke="#FFFFFF" stroke-width="3.7" cx="744.264" cy="205.227" r="145.739"/>
	<path fill="#0076C0" d="M896.26,160.257c-41.315-25.369-117.73-52.469-193.785,23.672c-112.303,112.328-224.31,0-224.31,0
		l0.11-0.01c41.072,25.327,116.989,52.305,193.094-23.761c112.214-112.319,225.092,0,225.092,0L896.26,160.257z"/>
	<path fill="#FFFFFF" d="M670.661,159.465c-76.415,76.377-153.002,47.57-191.88,23.596l-1.305,1.565
		c0.484,0.512,50.789,50.175,116.832,50.225c38.891,0.025,75.538-16.866,108.862-50.225c76.38-76.43,153.443-47.539,192.563-23.543
		l1.423-1.625C896.011,158.334,782.274,47.729,670.661,159.465z M672.035,160.855c94.743-94.847,190.967-27.532,216.861-6.025
		c-41.507-22.983-114.605-44.146-187.105,28.396c-32.963,32.968-69.124,49.667-107.46,49.642
		c-51.052-0.021-92.467-30.009-108.38-43.342C527.255,212.382,599.744,233.141,672.035,160.855z"/>
	<path fill="#0093D0" d="M953.752,197.731c-41.344-25.389-117.751-52.465-193.894,23.688c-112.198,112.231-224.193,0-224.193,0
		l0.095-0.06c41.042,25.333,116.978,52.321,193.034-23.745c112.242-112.316,225.151,0,225.151,0L953.752,197.731z"/>
	<path fill="#FFFFFF" d="M728.095,196.911c-76.378,76.388-152.961,47.594-191.829,23.624l-1.298,1.571
		c0.494,0.484,50.767,50.121,116.818,50.185c38.883,0.018,75.475-16.864,108.771-50.185
		c76.437-76.457,153.512-47.566,192.634-23.545l1.419-1.65C953.507,195.787,839.743,85.207,728.095,196.911z M729.502,198.297
		c94.893-94.924,191.198-27.377,216.962-5.942c-41.462-23-114.692-44.29-187.302,28.367c-32.949,32.927-69.024,49.617-107.376,49.59
		c-51.078-0.007-92.497-30.035-108.373-43.328C584.7,249.841,657.216,270.619,729.502,198.297z"/>
	<path fill="#00A5D9" d="M1009.418,234.419c-41.308-25.345-117.747-52.455-193.862,23.697c-112.242,112.266-224.212,0-224.212,0
		l0.085-0.053c41.085,25.347,117.006,52.338,193.023-23.747c112.317-112.316,225.19,0,225.19,0L1009.418,234.419z"/>
	<path fill="#FFFFFF" d="M783.722,233.619c-76.307,76.407-152.896,47.592-191.778,23.612l-1.289,1.573
		c0.494,0.493,50.775,50.137,116.815,50.206c38.854,0,75.457-16.866,108.813-50.206c76.402-76.457,153.485-47.557,192.629-23.544
		l1.396-1.642C1009.181,232.484,895.441,121.905,783.722,233.619z M785.104,235.011c94.916-94.887,191.18-27.433,216.998-5.977
		c-41.474-22.995-114.633-44.238-187.219,28.352c-32.945,32.975-69.119,49.671-107.414,49.648
		c-51.021-0.025-92.442-30.024-108.347-43.315C640.414,286.543,712.898,307.308,785.104,235.011z"/>
	<path fill="#FFFFFF" d="M292.28,552.364c-1.312-1.851-3.649-2.729-6.033-2.729c-2.823,0-5.644,1.27-5.644,4.427
		c0,6.912,16.349,2.969,16.349,15.231c0,7.398-5.84,11.003-12.602,11.003c-4.282,0-8.47-1.32-11.29-4.676l4.623-4.479
		c1.509,2.288,4.086,3.604,6.813,3.604c2.821,0,6.032-1.558,6.032-4.719c0-7.545-16.348-3.218-16.348-15.528
		c0-7.104,6.323-10.414,12.698-10.414c3.603,0,7.203,1.023,9.876,3.553L292.28,552.364z"/>
	<polygon fill="#FFFFFF" points="304.349,544.966 311.065,544.966 317.535,569.781 317.634,569.781 325.37,544.966 331.405,544.966 
		338.995,569.781 339.094,569.781 345.856,544.966 352.085,544.966 342.061,579.421 336.221,579.421 328.243,553.194 
		328.145,553.194 320.163,579.421 314.52,579.421 	"/>
	<rect x="360.649" y="544.966" fill="#FFFFFF" width="6.132" height="34.455"/>
	<polygon fill="#FFFFFF" points="379.337,544.966 388.678,544.966 397.875,569.102 407.168,544.966 416.416,544.966 
		416.416,579.421 410.575,579.421 410.575,550.807 410.479,550.807 400.017,579.421 395.734,579.421 385.271,550.807 
		385.176,550.807 385.176,579.421 379.337,579.421 	"/>
	<polygon fill="#FFFFFF" points="429.261,544.966 438.604,544.966 447.803,569.102 457.094,544.966 466.34,544.966 466.34,579.421 
		460.501,579.421 460.501,550.807 460.406,550.807 449.94,579.421 445.66,579.421 435.197,550.807 435.101,550.807 435.101,579.421 
		429.261,579.421 	"/>
	<rect x="478.896" y="544.966" fill="#FFFFFF" width="6.132" height="34.455"/>
	<polygon fill="#FFFFFF" points="497.434,544.966 505.563,544.966 522.252,570.563 522.349,570.662 522.252,570.662 
		522.349,570.563 522.349,544.966 528.48,544.966 528.48,579.421 520.694,579.421 503.662,552.996 503.565,552.996 503.565,579.421 
		497.434,579.421 	"/>
	<path fill="#FFFFFF" d="M571.644,576.887c-4.186,2.237-8.954,3.411-14.259,3.411c-10.607,0-18.197-7.205-18.197-17.959
		c0-11.046,7.59-18.251,18.197-18.251c5.254,0,9.978,1.122,13.575,4.336l-4.522,4.572c-2.189-2.138-5.548-3.359-9.006-3.359
		c-7.104,0-11.822,5.454-11.822,12.313c0,7.347,4.72,12.801,11.822,12.801c3.116,0,5.938-0.589,8.08-1.799v-8.129h-7.057v-5.549
		h13.188L571.644,576.887L571.644,576.887z"/>
	<rect x="604.83" y="544.966" fill="#FFFFFF" width="6.13" height="34.455"/>
	<polygon fill="#FFFFFF" points="622.396,544.966 630.523,544.966 647.213,570.563 647.311,570.662 647.213,570.662 
		647.311,570.563 647.311,544.966 653.442,544.966 653.442,579.421 645.654,579.421 628.624,552.996 628.527,552.996 
		628.527,579.421 622.396,579.421 	"/>
	<path fill="#FFFFFF" d="M722.249,579.421H702.2c-10.707,0-18.785-6.767-18.785-17.963c0-10.118,8.272-17.37,18.102-17.37
		c9.83,0,18.102,7.252,18.102,17.37c0,7.205-3.94,11.003-7.248,12.899v0.099h9.88L722.249,579.421L722.249,579.421z
		 M689.838,561.608c0,7.055,4.916,12.264,11.631,12.264c6.813,0,11.73-5.209,11.73-12.264c0-6.861-4.867-11.973-11.827-11.973
		C694.704,549.637,689.838,554.747,689.838,561.608z"/>
	<path fill="#FFFFFF" d="M756.744,566.766c0,8.323-5.984,13.532-13.868,13.532c-7.881,0-13.868-5.209-13.868-13.532v-21.8h6.13
		v21.606c0,3.406,1.851,7.884,7.738,7.884s7.738-4.479,7.738-7.884v-21.606h6.13V566.766z"/>
	<path fill="#FFFFFF" d="M772.999,544.966h5.3l14.845,34.455h-7.008l-3.213-7.885h-14.938l-3.11,7.885h-6.864L772.999,544.966z
		 M780.781,566.279l-5.3-14.016l-5.399,14.016H780.781z"/>
	<polygon fill="#FFFFFF" points="799.415,544.966 805.553,544.966 805.553,573.872 820.2,573.872 820.2,579.421 799.415,579.421 	
		"/>
	<rect x="826.958" y="544.966" fill="#FFFFFF" width="6.138" height="34.455"/>
	<polygon fill="#FFFFFF" points="850.126,550.515 839.565,550.515 839.565,544.966 866.815,544.966 866.815,550.515 
		856.256,550.515 856.256,579.421 850.126,579.421 	"/>
	<polygon fill="#FFFFFF" points="881.85,564.675 868.906,544.966 876.594,544.966 885.063,558.688 893.627,544.966 900.927,544.966 
		887.983,564.675 887.983,579.421 881.85,579.421 	"/>
	<path fill="#FFFFFF" d="M942.286,544.966h5.305l14.84,34.455h-7.003l-3.213-7.885h-14.938l-3.114,7.885H927.3L942.286,544.966z
		 M950.072,566.279l-5.305-14.016l-5.401,14.016H950.072z"/>
	<polygon fill="#FFFFFF" points="968.711,544.966 976.84,544.966 993.526,570.563 993.625,570.662 993.526,570.662 993.625,570.563 
		993.625,544.966 999.751,544.966 999.751,579.421 991.969,579.421 974.936,552.996 974.841,552.996 974.841,579.421 
		968.711,579.421 	"/>
	<path fill="#FFFFFF" d="M1009.877,544.966h13.579c9.047,0,17.513,5.549,17.513,17.228c0,11.773-9.972,17.229-18.248,17.229h-12.844
		V544.966z M1020.583,573.872c7.687,0,13.963-3.31,13.963-11.68s-5.45-11.679-12.942-11.679h-5.598v23.357L1020.583,573.872
		L1020.583,573.872z"/>
	<path fill="#FFFFFF" d="M1085.885,552.364c-1.315-1.851-3.651-2.729-6.039-2.729c-2.813,0-5.64,1.27-5.64,4.427
		c0,6.912,16.347,2.969,16.347,15.231c0,7.398-5.842,11.003-12.604,11.003c-4.276,0-8.462-1.32-11.288-4.676l4.624-4.479
		c1.506,2.288,4.087,3.604,6.814,3.604c2.82,0,6.033-1.558,6.033-4.719c0-7.545-16.354-3.218-16.354-15.528
		c0-7.104,6.332-10.414,12.703-10.414c3.6,0,7.201,1.023,9.88,3.553L1085.885,552.364z"/>
	<polygon fill="#FFFFFF" points="1106.412,550.515 1095.86,550.515 1095.86,544.966 1123.105,544.966 1123.105,550.515 
		1112.55,550.515 1112.55,579.421 1106.412,579.421 	"/>
	<polygon fill="#FFFFFF" points="1138.145,564.675 1125.205,544.966 1132.888,544.966 1141.357,558.688 1149.922,544.966 
		1157.222,544.966 1144.278,564.675 1144.278,579.421 1138.145,579.421 	"/>
	<polygon fill="#FFFFFF" points="1162.814,544.966 1168.947,544.966 1168.947,573.872 1183.595,573.872 1183.595,579.421 
		1162.814,579.421 	"/>
	<polygon fill="#FFFFFF" points="1187.582,544.966 1210.406,544.966 1210.406,550.515 1193.716,550.515 1193.716,558.979 
		1209.528,558.979 1209.528,564.528 1193.716,564.528 1193.716,573.872 1211.283,573.872 1211.283,579.421 1187.582,579.421 	"/>
	<polygon fill="#FFFFFF" points="66.694,418.002 77.191,418.002 77.191,493.465 143.088,493.465 143.088,502.796 66.694,502.796 	
		"/>
	<polygon fill="#FFFFFF" points="167.929,418.002 251.437,418.002 251.437,427.451 178.193,427.451 178.193,454.046 
		248.405,454.046 248.405,463.491 178.193,463.491 178.193,493.35 251.437,493.35 251.437,502.796 167.929,502.796 	"/>
	<rect x="278.845" y="418.002" fill="#FFFFFF" width="10.497" height="84.794"/>
	<path fill="#FFFFFF" d="M331.095,475.154c-0.116,2.217-0.232,3.85-0.232,5.015c0,11.545,7.35,14.229,24.844,14.229h22.16
		c20.644,0,27.758-2.214,27.758-16.445c0-12.011-5.365-13.994-18.66-13.994h-35.807c-22.044,0-30.675-5.834-30.675-23.326
		c0-18.896,10.849-23.678,36.506-23.678h19.245c15.629,0,25.893,0.352,31.957,5.363c4.081,3.502,5.715,8.982,5.715,16.797
		c0,0.813,0,1.637,0,2.45h-10.146c0-0.467,0-0.813,0-1.284c0-12.244-5.249-14.229-20.994-14.229H353.84
		c-16.679,0-22.394,2.684-22.394,14.108c0,12.485,6.765,14.347,23.093,14.347h30.438c10.613,0,18.196,0.472,23.096,3.389
		c6.414,3.845,8.047,10.145,8.047,20.642c0,19.477-9.448,25.31-34.989,25.31h-28.809c-22.16,0-31.605-5.946-31.605-22.277
		c0-1.865,0.116-3.968,0.232-6.414h10.146V475.154z"/>
	<path fill="#FFFFFF" d="M448.811,497.899c-5.947-5.017-7.931-12.947-7.931-24.964v-54.935h10.847v52.022c0,1.047,0,1.979,0,2.911
		c0,6.302,0.117,11.082,2.915,15.048c3.268,4.78,8.981,6.181,17.847,6.181h34.872c8.864,0,14.58-1.399,17.845-6.181
		c2.8-3.966,2.916-8.746,2.916-15.048c0-0.933,0-1.864,0-2.911v-52.022h10.847v54.351c0,12.48-2.217,20.646-7.814,25.548
		c-5.947,5.247-14.928,5.946-28.225,5.946h-25.893C463.973,503.847,454.991,503.147,448.811,497.899z"/>
	<path fill="#FFFFFF" d="M570.806,502.796v-84.794h60.532c23.908,0,33.355,2.917,33.355,20.18v10.149
		c0,10.03-3.265,14.461-14.93,16.907c9.214,1.051,13.996,6.65,13.996,16.563v20.994h-10.497V483.9
		c0-13.295-5.946-14.348-20.526-14.348h-51.435v33.242L570.806,502.796L570.806,502.796z M581.303,427.218v32.543h53.418
		c15.044,0,18.895-2.684,18.895-14.231v-4.082c0-11.545-3.851-14.229-18.895-14.229H581.303z"/>
	<polygon fill="#FFFFFF" points="692.683,418.002 776.192,418.002 776.192,427.451 702.947,427.451 702.947,454.046 
		773.161,454.046 773.161,463.491 702.947,463.491 702.947,493.35 776.192,493.35 776.192,502.796 692.683,502.796 	"/>
	<path fill="#FFFFFF" d="M870.428,502.796v-84.794h58.899c23.678,0,33.242,2.802,33.242,20.18v11.082
		c0,17.374-9.564,20.063-33.242,20.063h-48.402v33.471L870.428,502.796L870.428,502.796z M932.362,459.761
		c15.627,0,18.892-2.799,18.892-14.231v-4.082c0-11.426-3.265-14.229-18.892-14.229h-51.438v32.543H932.362z"/>
	<path fill="#FFFFFF" d="M985.313,497.899c-6.418-5.136-8.631-13.066-8.631-25.195v-23.093c0-13.063,2.1-21.575,8.514-26.709
		c6.414-5.131,16.33-5.948,30.673-5.948h28.341c14.347,0,24.263,0.817,30.677,5.948c6.063,4.781,8.513,13.065,8.513,25.656v23.679
		c0,12.48-2.33,20.761-8.513,25.662c-6.532,5.247-16.33,5.946-30.677,5.946h-28.223
		C1001.759,503.847,991.961,503.147,985.313,497.899z M1010.854,426.285c-9.68,0-15.86,1.281-19.592,6.182
		c-3.148,4.201-3.269,9.445-3.269,16.563c0,0.467,0,1.047,0,1.514v19.243c0,0.471,0,1.052,0,1.518
		c0,7.114,0.119,12.362,3.269,16.563c3.73,4.896,9.912,6.182,19.592,6.182h38.371c9.684,0,15.863-1.285,19.596-6.182
		c2.917-3.851,3.148-8.75,3.148-15.283c0-0.929,0-1.861,0-2.798v-19.243c0-0.933,0-1.865,0-2.798c0-6.529-0.231-11.43-3.148-15.279
		c-3.731-4.899-9.912-6.182-19.596-6.182H1010.854z"/>
	<path fill="#FFFFFF" d="M1111.507,497.899c-6.419-5.136-8.632-13.066-8.632-25.195v-23.093c0-13.063,2.099-21.575,8.514-26.709
		c6.414-5.131,16.33-5.948,30.672-5.948h28.343c14.346,0,24.262,0.817,30.677,5.948c6.063,4.781,8.513,13.065,8.513,25.656v23.679
		c0,12.48-2.332,20.761-8.513,25.662c-6.533,5.247-16.331,5.946-30.677,5.946h-28.224
		C1127.951,503.847,1118.154,503.147,1111.507,497.899z M1137.046,426.285c-9.679,0-15.86,1.281-19.591,6.182
		c-3.15,4.201-3.27,9.445-3.27,16.563c0,0.467,0,1.047,0,1.514v19.243c0,0.471,0,1.052,0,1.518c0,7.114,0.118,12.362,3.27,16.563
		c3.73,4.896,9.912,6.182,19.591,6.182h38.371c9.683,0,15.864-1.285,19.595-6.182c2.917-3.851,3.15-8.75,3.15-15.283
		c0-0.929,0-1.861,0-2.798v-19.243c0-0.933,0-1.865,0-2.798c0-6.529-0.233-11.43-3.15-15.279c-3.729-4.899-9.912-6.182-19.595-6.182
		H1137.046z"/>
	<polygon fill="#FFFFFF" points="1230.814,418.002 1241.313,418.002 1241.313,493.465 1307.211,493.465 1307.211,502.796 
		1230.814,502.796 	"/>
	<path fill="#FFFFFF" d="M1322.41,475.154c-0.118,2.217-0.232,3.85-0.232,5.015c0,11.545,7.348,14.229,24.839,14.229h22.164
		c20.643,0,27.756-2.214,27.756-16.445c0-12.011-5.362-13.994-18.661-13.994h-35.804c-22.045,0-30.677-5.834-30.677-23.326
		c0-18.896,10.849-23.678,36.506-23.678h19.244c15.631,0,25.895,0.352,31.957,5.363c4.082,3.502,5.715,8.982,5.715,16.797
		c0,0.813,0,1.637,0,2.45h-10.146c0-0.467,0-0.813,0-1.284c0-12.244-5.249-14.229-20.994-14.229h-28.927
		c-16.679,0-22.394,2.684-22.394,14.108c0,12.485,6.767,14.347,23.093,14.347h30.444c10.61,0,18.19,0.472,23.092,3.389
		c6.414,3.845,8.047,10.145,8.047,20.642c0,19.477-9.444,25.31-34.987,25.31h-28.809c-22.16,0-31.609-5.946-31.609-22.277
		c0-1.865,0.118-3.968,0.233-6.414h10.149V475.154z"/>
</g>
</svg>
