<?xml version="1.0" encoding="UTF-8" standalone="no"?>
<svg xmlns:rdf="http://www.w3.org/1999/02/22-rdf-syntax-ns#" xmlns="http://www.w3.org/2000/svg" xml:space="preserve" height="100%" width="100%" version="1.0" xmlns:cc="http://creativecommons.org/ns#" xmlns:xlink="http://www.w3.org/1999/xlink" viewBox="0 0 120.65643 120.66074" xmlns:dc="http://purl.org/dc/elements/1.1/">
 <defs>
 <linearGradient id="linearGradient2881" y2="155.81" gradientUnits="userSpaceOnUse" x2="-150.81" gradientTransform="matrix(.99999 0 0 .99999 153.28 -35.44)" y1="35.443" x1="-150.81"><stop stop-opacity=".8" offset="0"/><stop stop-opacity=".5" offset="1"/></linearGradient><linearGradient id="linearGradient2883" y2="198.55" gradientUnits="userSpaceOnUse" x2="59.368" gradientTransform="matrix(1.3257 0 0 1.3257 -75.317 -177.07)" y1="136.79" x1="59.546"><stop stop-color="#fff" stop-opacity=".91593" offset="0"/><stop stop-color="#fff" stop-opacity=".14159" offset="1"/></linearGradient></defs>
<g transform="translate(58)"><g transform="matrix(1.4048 0 0 1.4048 -382.26 1.7734)"><path id="bgColor00" style="color:#000000" fill="#0f0" transform="matrix(.42736 0 0 .44451 108.78 -.11418)" d="m486.04 94.254a100.24 96.369 0 1 1 -200.47 0 100.24 96.369 0 1 1 200.47 0z"/></g><path style="color:#000000" fill="url(#linearGradient2881)" d="m4.2194 0.03141a60.175 60.175 0 0 0 -61.938 60.155 60.187 60.187 0 0 0 120.37 0 60.175 60.175 0 0 0 -58.432 -60.155zm0.25 2.9063a57.31 57.31 0 0 1 55.625 57.28 57.313 57.313 0 0 1 -114.62 0 57.31 57.31 0 0 1 58.995 -57.28z"/><path style="color:#000000" fill="url(#linearGradient2883)" d="m45.064 44.62a41.675 41.527 0 0 1 -83.351 0 41.675 41.527 0 1 1 83.351 0z"/></g></svg>
