<?xml version="1.0" encoding="UTF-8" standalone="no"?>
<svg xmlns:rdf="http://www.w3.org/1999/02/22-rdf-syntax-ns#" xmlns="http://www.w3.org/2000/svg" contentScriptType="text/ecmascript" viewBox="0 0 495.99701 136" height="136" width="496" contentStyleType="text/css" version="1.1" zoomAndPan="magnify" preserveAspectRatio="xMidYMid meet" xmlns:cc="http://creativecommons.org/ns#" xmlns:xlink="http://www.w3.org/1999/xlink" xmlns:dc="http://purl.org/dc/elements/1.1/">
 <defs>
  <linearGradient id="linearGradient21275" y2="225.62" gradientUnits="userSpaceOnUse" x2="427.48" gradientTransform="matrix(.28060 0 0 -.29566 308.73 154.93)" y1="37.869" x1="427.48">
   <stop offset="0"/>
   <stop stop-opacity="0" offset="1"/>
  </linearGradient>
  <linearGradient id="linearGradient21280" y2="225.62" gradientUnits="userSpaceOnUse" x2="427.48" gradientTransform="matrix(.28138 0 0 .29566 308.61 -19.976)" y1="37.869" x1="427.48">
   <stop stop-color="#FFF" offset="0"/>
   <stop stop-opacity="0" stop-color="#FFF" offset="1"/>
  </linearGradient>
  <linearGradient id="linearGradient21285" y2="45.328" gradientUnits="userSpaceOnUse" x2="23.59" gradientTransform="matrix(-1.4111 0 0 1.4111 511.26 7.9993)" y1="45.328" x1="16.49">
   <stop stop-color="#58585A" offset="0"/>
   <stop stop-color="#E3E4E4" offset="1"/>
  </linearGradient>
  <linearGradient id="linearGradient21288" y2="59.493" gradientUnits="userSpaceOnUse" x2="10.268" gradientTransform="matrix(1.4111 0 0 1.4111 7.9961 7.9993)" y1="24.545" x1="-7.5479">
   <stop stop-color="#E3E4E4" offset="0"/>
   <stop stop-color="#5A5A5A" offset="1"/>
  </linearGradient>
  <linearGradient id="linearGradient21293" y2="656.1" gradientUnits="userSpaceOnUse" x2="395.66" gradientTransform="translate(-123.43 -470.08)" y1="453" x1="395.66">
   <stop stop-opacity=".47059" stop-color="#323232" offset="0"/>
   <stop stop-opacity=".23529" stop-color="#191919" offset=".33399"/>
   <stop stop-opacity="0" offset="1"/>
  </linearGradient>
 </defs>
 <path fill="url(#linearGradient21293)" d="m22.969 0c-12.661 0-22.969 10.271-22.969 22.875v90.281c0 12.6 10.308 22.84 22.969 22.84h450.09c12.656 0 22.938-10.24 22.938-22.844v-90.289c0-12.605-10.28-22.875-22.94-22.875h-450.09zm-0.40625 8h450.91c8.0264 0 14.531 6.5292 14.531 14.562v90.906c0 8.0332-6.5048 14.531-14.531 14.531h-450.91c-8.0304 0-14.562-6.4994-14.562-14.531v-90.908c0.0028-8.033 6.535-14.562 14.565-14.562z"/>
 <path id="bgColor00" fill="#003380" d="m22.539 8c-8.03 0-14.537 6.514-14.537 14.547v90.912c0 8.0318 6.5066 14.544 14.537 14.544h450.93c8.0264 0 14.533-6.5108 14.533-14.544v-90.917c0-8.0333-6.5066-14.547-14.533-14.547l-450.93 0.003z"/>
 <path opacity=".2" fill="#4d4d4d" d="m473.47 8h-450.93c-8.03 0-14.537 6.514-14.537 14.547v90.912c0 8.0318 6.5066 14.544 14.537 14.544h450.93c8.0264 0 14.533-6.5108 14.533-14.544v-90.908c0-8.0333-6.5066-14.547-14.533-14.547zm-450.93 117.18c-6.46 0-11.715-5.2592-11.715-11.722v-90.911c0-6.4657 5.2549-11.725 11.715-11.725h450.92c6.4558 0 11.711 5.2592 11.711 11.725v90.912c0 6.4628-5.2549 11.722-11.711 11.722h-450.94z"/>
 <path opacity=".25" fill="url(#linearGradient21288)" d="m7.999 34.2v76.797c0 4.7878 2.3213 9.0152 5.8857 11.667 4.8132-17.771 4.0964-39.863 4.0964-62.56 0-44.156-9.9818-47.496-9.9818-25.905z"/>
 <path opacity=".25" fill="url(#linearGradient21285)" d="m488 34.2v76.797c0 4.7879-2.3212 9.0152-5.8843 11.667-4.8147-17.771-4.0978-39.863-4.0978-62.56 0-44.155 9.9818-47.495 9.9818-25.905z"/>
 <g opacity=".2" fill="#FFF" transform="matrix(1.4111 0 0 1.4111 7.9961 7.9992)">
  <path fill="#FFF" d="m330.86 0h-320.56c-5.688 0-10.299 4.615-10.299 10.309v41.609c2.313-7.173 4.785-9.197 7.111-11.525 2.136-2.138 82.695-2.347 161.97-2.009v0.009c0.332-0.001 0.666-0.003 1-0.004 0.332 0.001 0.666 0.003 0.999 0.004v-0.009c79.272-0.338 159.83-0.129 161.97 2.009 2.326 2.328 4.799 4.353 7.111 11.525v-41.609c0-5.694-4.61-10.309-9.3-10.309z"/>
 </g>
 <path fill="url(#linearGradient21280)" d="m22.809 8.83c-7.1205 0-12.918 6.1288-12.918 13.665v35.58h477.02v-35.581c0-7.536-5.7894-13.665-12.908-13.665h-451.19z"/>
 <g opacity=".8" fill="#FFF" transform="matrix(1.4111 0 0 1.4111 7.9961 7.9992)">
  <path fill="#FFF" d="m328.8 0.896h-317.5c-5.588 0-10.117 4.53-10.117 10.117v2.77c0-5.587 4.529-10.118 10.117-10.118h317.51c5.588 0 10.117 4.531 10.117 10.118v-2.77c0-5.587-4.529-10.117-10.117-10.117z"/>
 </g>
 <path opacity=".25" fill="url(#linearGradient21275)" d="m22.419 126.14c-7.1008 0-13.141-6.1558-12.882-13.665v-35.59h476.99v35.581c0 7.536-5.7734 13.665-12.873 13.665h-451.26z"/>
</svg>
