<?xml version="1.0" encoding="UTF-8" standalone="no"?>
<svg xmlns:rdf="http://www.w3.org/1999/02/22-rdf-syntax-ns#" xmlns="http://www.w3.org/2000/svg" contentScriptType="text/ecmascript" viewBox="0 0 495.99701 136" height="136" width="496" contentStyleType="text/css" version="1.1" zoomAndPan="magnify" preserveAspectRatio="xMidYMid meet" xmlns:cc="http://creativecommons.org/ns#" xmlns:xlink="http://www.w3.org/1999/xlink" xmlns:dc="http://purl.org/dc/elements/1.1/">
 <defs>
  <linearGradient id="linearGradient21275" x1="427.48" gradientUnits="userSpaceOnUse" y1="37.869" gradientTransform="matrix(.28060 0 0 -.29566 308.73 154.93)" x2="427.48" y2="225.62">
   <stop offset="0"/>
   <stop stop-opacity="0" offset="1"/>
  </linearGradient>
  <linearGradient id="linearGradient11804" x1="395.66" gradientUnits="userSpaceOnUse" y1="453" gradientTransform="matrix(1 0 0 .99994 -123.43 -470.04)" x2="395.66" y2="656.1">
   <stop stop-opacity=".47059" stop-color="#323232" offset="0"/>
   <stop stop-opacity=".23529" stop-color="#191919" offset=".33399"/>
   <stop stop-opacity="0" offset="1"/>
  </linearGradient>
  <linearGradient id="linearGradient11832" x1="427.48" xlink:href="#linearGradient21275" gradientUnits="userSpaceOnUse" y1="37.869" gradientTransform="matrix(.28061 0 0 -.29564 308.73 154.93)" x2="427.48" y2="225.62"/>
  <linearGradient id="linearGradient11835" x1="427.48" xlink:href="#linearGradient21275" gradientUnits="userSpaceOnUse" y1="53.622" gradientTransform="matrix(.28139 0 0 .29564 308.61 -19.97)" x2="427.48" y2="157.11"/>
  <linearGradient id="linearGradient11840" x1="16.49" gradientUnits="userSpaceOnUse" y1="45.328" gradientTransform="matrix(-1.4111 0 0 1.411 511.26 8.0033)" x2="23.59" y2="45.328">
   <stop stop-color="#58585A" offset="0"/>
   <stop stop-color="#E3E4E4" offset="1"/>
  </linearGradient>
  <linearGradient id="linearGradient11843" x1="-7.5479" gradientUnits="userSpaceOnUse" y1="24.545" gradientTransform="matrix(1.4111 0 0 1.411 7.9929 8.0033)" x2="10.268" y2="59.493">
   <stop stop-color="#E3E4E4" offset="0"/>
   <stop stop-color="#5A5A5A" offset="1"/>
  </linearGradient>
 </defs>
 <path d="m22.528 6.5974c-8.788 0-15.938 7.181-15.938 15.968v90.901c0 8.7857 7.1528 15.937 15.938 15.937h450.94c8.781 0 15.938-7.1491 15.938-15.937v-90.901c0-8.7875-7.1529-15.968-15.938-15.968h-450.94zm0 5.6247h450.94c5.6929 0 10.281 4.6318 10.281 10.343v90.901c0 5.708-4.584 10.312-10.281 10.312h-450.85c-3.2832-0.23634-5.5305-1.3286-7.1875-3.0936-1.6329-1.7392-2.6992-4.2155-3.2188-7.3121v-90.807c0-5.7073 4.6149-10.343 10.313-10.343z" fill="#333" fill-opacity=".55"/>
 <path d="m22.968 0.011999c-12.661 0-22.969 10.27-22.969 22.874v90.276c-0.000495 12.6 10.308 22.84 22.969 22.84h450.09c12.656 0 22.938-10.239 22.938-22.843v-90.284c0-12.607-10.28-22.876-22.94-22.876h-450.09zm-0.40625 7.9995h450.91c8.0264 0 14.531 6.5288 14.531 14.561v90.901c0 8.0327-6.5048 14.53-14.531 14.53h-450.91c-8.0304 0-14.562-6.499-14.562-14.53v-90.903c0.0041-8.029 6.536-14.558 14.566-14.558z" fill="url(#linearGradient11804)"/>
 <path id="bgColor00" fill="#003380" d="m22.536 8.004c-8.03 0-14.537 6.5136-14.537 14.546v90.907c0 8.0313 6.5066 14.543 14.537 14.543h450.93c8.0264 0 14.533-6.5104 14.533-14.543v-90.914c0-8.033-6.51-14.546-14.53-14.546l-450.93 0.003z"/>
 <path opacity=".8" d="m22.537 8.004c-8.03 0-14.537 6.5136-14.537 14.546v90.907c0 8.0313 6.5066 14.543 14.537 14.543h450.93c8.0264 0 14.533-6.5104 14.533-14.543v-90.903c0-8.0328-6.5066-14.546-14.533-14.546l-450.93-0.004zm-11.715 105.46v-90.906c0-6.4653 5.2549-11.724 11.715-11.724h450.92c6.4558 0 11.711 5.2589 11.711 11.724v90.907c0 6.4624-5.2549 11.721-11.711 11.721h-450.94c-7.1194-0.51247-10.613-5.0266-11.695-11.722z" fill="#333"/>
 <path opacity=".25" d="m7.9958 34.202v76.792c0 4.7875 2.3213 9.0147 5.8857 11.666 4.8132-17.77 4.0964-39.861 4.0964-62.556 0-44.153-9.9819-47.493-9.9819-25.903z" fill="url(#linearGradient11843)"/>
 <path opacity=".25" d="m488 34.202v76.792c0 4.7876-2.3212 9.0147-5.8843 11.666-4.8147-17.77-4.0978-39.861-4.0978-62.556 0-44.152 9.9819-47.492 9.9819-25.903z" fill="url(#linearGradient11840)"/>
 <path d="m22.806 8.834c-7.1205 0-12.918 6.1284-12.918 13.664v35.578h477.02v-35.579c0-7.5356-5.7894-13.664-12.908-13.664h-451.19z" fill="url(#linearGradient11835)"/>
 <path opacity=".85" fill="url(#linearGradient11832)" d="m22.416 126.14c-7.1008 0-13.141-6.1554-12.882-13.664v-35.588h476.99v35.579c0 7.5356-5.7734 13.664-12.873 13.664h-451.26z"/>
 <g opacity=".15" transform="matrix(1.3739 0 0 1.2302 14.095 14.165)" fill="#FFF">
  <path d="m328.8 0.896h-317.5c-5.588 0-10.117 4.53-10.117 10.117v2.77c0-5.587 4.529-10.118 10.117-10.118h317.51c5.588 0 10.117 4.531 10.117 10.118v-2.77c0-5.587-4.529-10.117-10.117-10.117z" fill="#FFF"/>
 </g>
 <g opacity=".2" fill="#fff" transform="matrix(1.4111 0 0 1.4111 7.9961 7.9992)">
  <path fill="#fff" d="m330.86 0h-320.56c-5.688 0-10.299 4.615-10.299 10.309v41.609c2.313-7.173 4.785-9.197 7.111-11.525 2.136-2.138 82.695-2.347 161.97-2.009v0.009c0.332-0.001 0.666-0.003 1-0.004 0.332 0.001 0.666 0.003 0.999 0.004v-0.009c79.272-0.338 159.83-0.129 161.97 2.009 2.326 2.328 4.799 4.353 7.111 11.525v-41.609c0-5.694-4.61-10.309-9.3-10.309z"/>
 </g>
</svg>
